<?xml version="1.0" encoding="UTF-8" standalone="no"?>
<svg
   xmlns:dc="http://purl.org/dc/elements/1.1/"
   xmlns:cc="http://creativecommons.org/ns#"
   xmlns:rdf="http://www.w3.org/1999/02/22-rdf-syntax-ns#"
   xmlns:svg="http://www.w3.org/2000/svg"
   xmlns="http://www.w3.org/2000/svg"
   xmlns:sodipodi="http://sodipodi.sourceforge.net/DTD/sodipodi-0.dtd"
   xmlns:inkscape="http://www.inkscape.org/namespaces/inkscape"
   viewBox="0 0 3840.0001 966.34347"
   version="1.1"
   id="svg971"
   sodipodi:docname="25horizfull-white.svg"
   width="3840"
   height="966.34344"
   inkscape:version="1.0.2 (e86c8708, 2021-01-15)">
  <metadata
     id="metadata975">
    <rdf:RDF>
      <cc:Work
         rdf:about="">
        <dc:format>image/svg+xml</dc:format>
        <dc:type
           rdf:resource="http://purl.org/dc/dcmitype/StillImage" />
      </cc:Work>
    </rdf:RDF>
  </metadata>
  <sodipodi:namedview
     pagecolor="#ffffff"
     bordercolor="#666666"
     borderopacity="1"
     objecttolerance="10"
     gridtolerance="10"
     guidetolerance="10"
     inkscape:pageopacity="0"
     inkscape:pageshadow="2"
     inkscape:window-width="1454"
     inkscape:window-height="844"
     id="namedview973"
     showgrid="false"
     inkscape:zoom="0.47385149"
     inkscape:cx="1949.33"
     inkscape:cy="474.81184"
     inkscape:window-x="0"
     inkscape:window-y="25"
     inkscape:window-maximized="0"
     inkscape:current-layer="svg971" />
  <defs
     id="defs835">
    <style
       id="style833">.cls-1{fill:#005cb9;}.cls-2{fill:#fff;}.cls-3{fill:#9d9d9c;}</style>
  </defs>
  <g
     id="Layer_1-2"
     data-name="Layer 1"
     transform="matrix(5.2979402,0,0,5.2979402,-1133.4413,-1089.0446)">
    <path
       class="cls-2"
       d="m 377.28,346.23 a 92.21,92.21 0 0 1 -154.33,0 h 31 a 68.37,68.37 0 0 0 92.33,0 z"
       id="path839" />
    <path
       class="cls-2"
       d="m 494.3,255 a 3.71,3.71 0 0 1 0.58,-0.08 c 0.57,0 1.51,0 2.81,0.1 h 1.41 c 0.37,0 1.15,0 2.34,-0.11 l 4.27,-0.25 c 1.12,-0.1 2.42,-0.15 3.91,-0.15 a 14.8,14.8 0 0 1 6.28,1.12 7.77,7.77 0 0 1 3.6,3.5 10,10 0 0 1 1.27,4.74 9.47,9.47 0 0 1 -2.76,6.8 9.87,9.87 0 0 1 -7.43,2.85 7.64,7.64 0 0 1 -2.19,-0.26 7.91,7.91 0 0 1 -2,-1 1.24,1.24 0 0 1 -0.57,-0.67 0.53,0.53 0 0 1 0.27,-0.26 2,2 0 0 1 0.73,0.15 6.33,6.33 0 0 0 2.16,0.31 7.66,7.66 0 0 0 3.75,-1 6.37,6.37 0 0 0 2.67,-2.79 8.48,8.48 0 0 0 0.9,-3.82 8.54,8.54 0 0 0 -3.46,-6.74 7.65,7.65 0 0 0 -2.69,-1.05 13,13 0 0 0 -2.82,-0.43 c -2.07,0 -3.3,0.15 -3.68,0.45 v 0.35 l 0.08,2.84 v 0.5 c 0,0.45 -0.05,1.15 -0.05,2.08 0,3.42 0.05,5.54 0.15,6.38 V 270 l 0.33,11.47 q 0,0.25 -0.06,0.93 a 10.69,10.69 0 0 0 -0.07,1.18 6.51,6.51 0 0 0 0.2,1.83 c 0.41,0.12 1.58,0.39 3.52,0.83 0.9,0.21 1.4,0.34 1.48,0.37 a 0.73,0.73 0 0 1 0.35,0.33 0.83,0.83 0 0 1 -0.26,0.49 1.3,1.3 0 0 1 -0.64,0.11 q -0.3,0 -1.41,-0.12 c -1.44,-0.15 -2.57,-0.23 -3.39,-0.23 l -4.42,0.18 -2.64,-0.08 h -1.45 v -0.65 l 3.27,-0.63 a 2.15,2.15 0 0 0 1,-0.45 2.65,2.65 0 0 0 0.25,-1.38 c 0,-0.15 0,-0.48 0,-1 0,-0.52 0,-0.84 0,-1.45 q 0,-3 -0.25,-12.63 -0.1,-4.51 -0.1,-9.18 v -0.43 c 0,-1.2 -0.19,-2 -0.56,-2.28 -0.62,-0.55 -2.16,-1 -4.64,-1.36 a 1,1 0 0 1 -0.13,-0.45 1,1 0 0 1 0.09,-0.4 z"
       id="path841" />
    <path
       class="cls-2"
       d="m 542,283.62 a 1.36,1.36 0 0 1 0.15,0.48 3.22,3.22 0 0 1 -0.6,1.33 5.52,5.52 0 0 1 -1.73,1.84 3.14,3.14 0 0 1 -1.66,0.37 3.32,3.32 0 0 1 -2.71,-1.1 4.72,4.72 0 0 1 -0.78,-2.34 l -2.81,2 a 11.51,11.51 0 0 1 -2.26,1.08 12.07,12.07 0 0 1 -3,0.33 2.68,2.68 0 0 1 -2,-0.77 2.73,2.73 0 0 1 -0.74,-2 q 0,-1.74 2.13,-4.14 a 15.69,15.69 0 0 1 5.77,-3.95 c 1.72,-0.72 2.76,-1.18 3.15,-1.38 0,-0.55 0,-1.15 0,-1.81 0,-2.12 -0.3,-3.56 -0.89,-4.32 a 3.09,3.09 0 0 0 -2.56,-1.13 4.82,4.82 0 0 0 -3.25,1.36 6,6 0 0 0 -1.41,3.22 5.15,5.15 0 0 1 -0.58,1.4 3.5,3.5 0 0 1 -1.73,0.7 1.68,1.68 0 0 1 -1,-0.32 0.51,0.51 0 0 1 -0.25,-0.4 8.66,8.66 0 0 1 1.4,-2.95 9.28,9.28 0 0 1 3.51,-3.45 8.11,8.11 0 0 1 3.71,-1.14 9.84,9.84 0 0 1 3.21,0.39 4.42,4.42 0 0 1 1.86,1.37 4.32,4.32 0 0 1 1,2.14 38.13,38.13 0 0 1 0.1,3.94 l -0.08,4 v 2.91 c 0,0.39 0,0.72 0,1 0,0.49 0,0.85 0,1.08 a 1.82,1.82 0 0 0 0.48,1.33 1.48,1.48 0 0 0 1.13,0.51 2,2 0 0 0 1.63,-1 l 0.3,-0.4 a 2.43,2.43 0 0 1 0.51,-0.18 z m -7.36,-0.72 q 0.18,-3.19 0.18,-4.5 c 0,-0.45 0,-1.06 -0.08,-1.83 a 17.31,17.31 0 0 0 -3.57,1.83 10.64,10.64 0 0 0 -3,2.84 3.86,3.86 0 0 0 -0.81,2.18 2.19,2.19 0 0 0 0.67,1.64 2.31,2.31 0 0 0 1.68,0.65 4.39,4.39 0 0 0 1.89,-0.55 12.67,12.67 0 0 0 3.03,-2.26 z"
       id="path843" />
    <path
       class="cls-2"
       d="m 563.56,282.44 v 1.64 a 12.11,12.11 0 0 1 -3.87,2.91 11.24,11.24 0 0 1 -4.49,0.83 9.12,9.12 0 0 1 -5.08,-1.47 9.46,9.46 0 0 1 -3.47,-4.16 12.59,12.59 0 0 1 -1.22,-5.27 10.48,10.48 0 0 1 1.47,-5.36 9.46,9.46 0 0 1 3.89,-3.77 13.23,13.23 0 0 1 6.09,-1.24 9.81,9.81 0 0 1 5.35,1.2 2.13,2.13 0 0 1 1,1.81 1.8,1.8 0 0 1 -0.53,1.33 1.83,1.83 0 0 1 -1.35,0.53 4.16,4.16 0 0 1 -2.77,-1.56 6.73,6.73 0 0 0 -1.68,-1.32 3.83,3.83 0 0 0 -1.68,-0.36 4.6,4.6 0 0 0 -3.72,1.83 10.29,10.29 0 0 0 -2.06,6.56 9.48,9.48 0 0 0 2.11,6.48 6.4,6.4 0 0 0 4.92,2.41 9,9 0 0 0 3.48,-0.64 14.47,14.47 0 0 0 3.61,-2.38 z"
       id="path845" />
    <path
       class="cls-2"
       d="m 567.41,269.21 v -0.74 c 1.09,-0.32 1.67,-0.51 1.76,-0.56 a 8.06,8.06 0 0 0 1.89,-1.23 8.19,8.19 0 0 0 1.67,-1.87 3.71,3.71 0 0 1 0.48,-0.05 h 0.3 c 0.07,0.8 0.1,1.39 0.1,1.76 0,0.08 0,0.46 0,1.13 v 1.35 7.23 l -0.08,7.66 a 1.94,1.94 0 0 0 0.3,1.29 4.83,4.83 0 0 0 1.94,0.82 13.22,13.22 0 0 1 1.51,0.48 0.79,0.79 0 0 1 0.07,0.3 0.78,0.78 0 0 1 -0.13,0.38 c -0.65,0 -1.49,-0.06 -2.51,-0.13 q -2.09,-0.18 -2.76,-0.18 l -4,0.13 a 13.24,13.24 0 0 0 -1.45,0.13 1.88,1.88 0 0 1 -0.41,-0.08 0.58,0.58 0 0 1 -0.12,-0.3 c 0,-0.24 0.16,-0.42 0.48,-0.55 0.06,0 0.92,-0.23 2.56,-0.58 a 1.66,1.66 0 0 0 1,-0.5 2.62,2.62 0 0 0 0.43,-1.68 q 0,-1.94 0,-10.58 a 8.87,8.87 0 0 0 -0.15,-2.16 2,2 0 0 0 -0.67,-0.69 7.3,7.3 0 0 0 -2.21,-0.78 z m 2.1,-13 a 1.92,1.92 0 0 1 0.65,-1.44 2.16,2.16 0 0 1 1.54,-0.6 2.29,2.29 0 0 1 1.63,0.68 2,2 0 0 1 0.71,1.46 2.07,2.07 0 0 1 -0.71,1.47 2.26,2.26 0 0 1 -1.63,0.69 2.12,2.12 0 0 1 -1.56,-0.63 2.2,2.2 0 0 1 -0.63,-1.66 z"
       id="path847" />
    <path
       class="cls-2"
       d="m 588,267.48 6.65,0.15 a 7.71,7.71 0 0 1 0.05,0.83 9.31,9.31 0 0 1 -0.07,1 9.08,9.08 0 0 1 -1.28,0.1 h -1 a 27.83,27.83 0 0 0 -4.32,0.22 c 0,0.39 -0.05,0.68 -0.05,0.88 a 3.46,3.46 0 0 0 0,0.38 q 0.12,3.94 0.12,4.77 v 6.45 a 5.3,5.3 0 0 0 0.48,2.39 2,2 0 0 0 1,0.88 9.92,9.92 0 0 0 2.31,0.45 l 1.86,0.28 a 3.17,3.17 0 0 1 -0.08,0.8 h -0.35 c -0.8,-0.05 -1.85,-0.1 -3.14,-0.13 l -1.86,-0.08 -6.32,0.21 h -0.83 v -0.78 l 0.55,-0.13 a 7.36,7.36 0 0 0 2.79,-0.9 1.17,1.17 0 0 0 0.35,-0.73 c 0,-0.2 0,-1.14 0,-2.81 0,-4.78 0,-8.58 -0.12,-11.43 a 8.56,8.56 0 0 0 -2,-0.25 c -0.34,0 -0.86,0 -1.58,-0.1 l -0.05,-0.28 a 0.61,0.61 0 0 1 0.25,-0.51 21.59,21.59 0 0 1 2.11,-1 2.44,2.44 0 0 0 1.1,-0.87 2.51,2.51 0 0 0 0.2,-1.16 c 0,-0.27 0.07,-0.73 0.15,-1.39 a 26.83,26.83 0 0 1 0.48,-3.19 12.19,12.19 0 0 1 1.52,-3.36 12.86,12.86 0 0 1 2.57,-2.93 7.69,7.69 0 0 1 2.5,-1.36 10.35,10.35 0 0 1 3.18,-0.45 6.24,6.24 0 0 1 3.49,0.77 1.59,1.59 0 0 1 0.75,1.35 1.61,1.61 0 0 1 -0.52,1.2 1.84,1.84 0 0 1 -1.31,0.5 5.2,5.2 0 0 1 -2.06,-0.48 c -1.39,-0.55 -2.18,-0.86 -2.36,-0.91 a 4.05,4.05 0 0 0 -3.5,0.76 3.8,3.8 0 0 0 -1.45,2.17 33.28,33.28 0 0 0 -0.3,5.78 c 0.09,1.03 0.09,2.02 0.09,2.91 z"
       id="path849" />
    <path
       class="cls-2"
       d="m 597.84,269.21 v -0.74 c 1.08,-0.32 1.67,-0.51 1.75,-0.56 a 7.9,7.9 0 0 0 1.9,-1.23 8.43,8.43 0 0 0 1.67,-1.87 3.55,3.55 0 0 1 0.48,-0.05 h 0.3 c 0.07,0.8 0.1,1.39 0.1,1.76 0,0.08 0,0.46 -0.05,1.13 v 1.35 7.23 l 0.01,7.67 a 1.83,1.83 0 0 0 0.3,1.29 4.76,4.76 0 0 0 1.93,0.82 12.58,12.58 0 0 1 1.51,0.48 0.84,0.84 0 0 1 0.08,0.3 0.9,0.9 0 0 1 -0.13,0.38 c -0.65,0 -1.49,-0.06 -2.51,-0.13 q -2.08,-0.18 -2.76,-0.18 l -4,0.13 a 13.66,13.66 0 0 0 -1.46,0.13 1.82,1.82 0 0 1 -0.4,-0.08 0.62,0.62 0 0 1 -0.13,-0.3 c 0,-0.24 0.16,-0.42 0.48,-0.55 0.07,0 0.92,-0.23 2.56,-0.58 a 1.66,1.66 0 0 0 1.06,-0.5 2.69,2.69 0 0 0 0.43,-1.68 q 0,-1.94 0.05,-10.58 a 8.18,8.18 0 0 0 -0.16,-2.16 1.86,1.86 0 0 0 -0.66,-0.69 7.39,7.39 0 0 0 -2.35,-0.79 z m 2.11,-13 a 1.91,1.91 0 0 1 0.64,-1.44 2.18,2.18 0 0 1 1.55,-0.6 2.29,2.29 0 0 1 1.63,0.68 2,2 0 0 1 0.7,1.46 2.06,2.06 0 0 1 -0.7,1.47 2.26,2.26 0 0 1 -1.63,0.69 2.12,2.12 0 0 1 -1.56,-0.63 2.2,2.2 0 0 1 -0.58,-1.66 z"
       id="path851" />
    <path
       class="cls-2"
       d="m 629.26,282.44 v 1.64 a 12,12 0 0 1 -3.86,2.91 11.33,11.33 0 0 1 -4.5,0.83 9.07,9.07 0 0 1 -5.07,-1.47 9.42,9.42 0 0 1 -3.48,-4.16 12.74,12.74 0 0 1 -1.22,-5.27 10.48,10.48 0 0 1 1.47,-5.36 9.52,9.52 0 0 1 3.89,-3.77 13.29,13.29 0 0 1 6.09,-1.24 9.79,9.79 0 0 1 5.35,1.2 2.11,2.11 0 0 1 1,1.81 1.8,1.8 0 0 1 -0.53,1.33 1.83,1.83 0 0 1 -1.35,0.53 4.16,4.16 0 0 1 -2.77,-1.56 6.73,6.73 0 0 0 -1.68,-1.32 3.83,3.83 0 0 0 -1.68,-0.36 4.6,4.6 0 0 0 -3.72,1.83 10.29,10.29 0 0 0 -2.06,6.56 9.53,9.53 0 0 0 2.11,6.48 6.41,6.41 0 0 0 4.93,2.41 9,9 0 0 0 3.47,-0.64 14.49,14.49 0 0 0 3.61,-2.38 z"
       id="path853" />
    <path
       class="cls-2"
       d="m 646.61,286.24 a 3.75,3.75 0 0 1 1.13,-0.28 c 2.56,-0.17 4,-0.47 4.39,-0.92 0.39,-0.45 0.56,-2.59 0.56,-6.44 v -2.64 -2.77 l -0.1,-3 0.05,-1.78 v -2 -2.32 l -0.05,-1 0.05,-1.3 c 0,-0.31 0,-0.66 0,-1.06 0,-1.06 -0.05,-2.17 -0.15,-3.34 a 3.36,3.36 0 0 0 -0.28,-0.68 8.38,8.38 0 0 0 -3,-0.64 7.64,7.64 0 0 1 -2.35,-0.37 c -0.13,-0.1 -0.21,-0.36 -0.22,-0.77 h 2.11 l 6.67,0.15 q 2.57,0 6.84,-0.15 a 6,6 0 0 1 -0.05,0.75 q -0.51,0.12 -1.68,0.27 a 13.34,13.34 0 0 0 -2.92,0.53 0.9,0.9 0 0 0 -0.47,0.43 4.22,4.22 0 0 0 -0.31,1.68 l -0.12,3.25 0.1,11.18 v 4.42 c 0,1.4 0,2.34 0,2.84 a 27.92,27.92 0 0 0 0.14,3.6 2.05,2.05 0 0 0 0.48,1.12 2.49,2.49 0 0 0 1.11,0.54 10.75,10.75 0 0 0 1.81,0.3 3.06,3.06 0 0 1 1.78,0.4 2.59,2.59 0 0 1 0.08,0.55 v 0.2 c -1.53,0.06 -2.65,0.08 -3.37,0.08 -0.42,0 -1.17,0 -2.24,-0.08 l -3.47,0.06 h -5.91 -0.48 z"
       id="path855" />
    <path
       class="cls-2"
       d="m 665.72,286.21 a 11.13,11.13 0 0 1 1.45,-0.3 4.36,4.36 0 0 0 1.9,-0.52 2,2 0 0 0 0.31,-1.38 l 0.06,-0.9 c 0,-0.34 0,-0.76 0,-1.28 l -0.05,-7.68 a 3.32,3.32 0 0 0 -0.4,-2 4.45,4.45 0 0 0 -2.51,-1 v -0.92 a 7.43,7.43 0 0 0 2.81,-1.31 9,9 0 0 0 2.41,-3.07 h 0.85 c 0.06,0.79 0.08,1.36 0.08,1.69 v 1.67 0.45 a 8.45,8.45 0 0 0 0.71,-0.51 16.52,16.52 0 0 1 3.09,-1.85 14.27,14.27 0 0 1 2.81,-1 6.76,6.76 0 0 1 1.76,-0.2 5.74,5.74 0 0 1 3.54,1.1 5,5 0 0 1 1.92,2.6 25.77,25.77 0 0 1 0.44,5.95 v 3.8 c 0,0.1 0,0.43 0,1 0,0.57 0,1.23 0,2 a 9,9 0 0 0 0.16,2.23 1.49,1.49 0 0 0 0.65,0.66 c 1.61,0.22 2.54,0.47 2.81,0.78 v 0.2 a 1.81,1.81 0 0 1 -0.15,0.63 h -0.48 l -3.31,-0.05 -3.27,0.07 c -1.2,0 -2.32,0 -3.34,0 l -0.15,-0.53 a 0.75,0.75 0 0 1 0.18,-0.4 5.87,5.87 0 0 1 1.91,-0.41 3.88,3.88 0 0 0 1,-0.15 2.56,2.56 0 0 0 0.68,-0.4 2.38,2.38 0 0 0 0.3,-1 c 0,-0.11 0,-0.35 -0.05,-0.7 0,-0.77 -0.08,-2.69 -0.1,-5.76 v -1.32 -2 c 0,-2.16 -0.44,-3.65 -1.31,-4.48 a 4.88,4.88 0 0 0 -3.49,-1.23 7.84,7.84 0 0 0 -3.29,0.74 11.18,11.18 0 0 0 -3.11,2.23 c 0,0.8 0,1.49 0,2.05 l 0.07,5.55 c 0,2.9 0,4.68 0.13,5.33 a 1,1 0 0 0 0.18,0.55 1.64,1.64 0 0 0 0.8,0.33 c 0.4,0.08 0.87,0.2 1.39,0.35 l 1,0.28 a 0.92,0.92 0 0 1 0.67,0.5 v 0.5 h -2.64 l -5.42,-0.07 h -2.39 -0.63 l -0.05,-0.33 a 2.6,2.6 0 0 1 0.07,-0.49 z"
       id="path857" />
    <path
       class="cls-2"
       d="m 695.65,280.66 a 18.79,18.79 0 0 0 1.41,3.09 7.08,7.08 0 0 0 2.28,2.22 5.54,5.54 0 0 0 2.89,0.79 4.32,4.32 0 0 0 2.84,-1.23 2.86,2.86 0 0 0 1,-2.16 4.53,4.53 0 0 0 -1.18,-3 11.37,11.37 0 0 0 -4.48,-2.6 10.44,10.44 0 0 1 -4.43,-2.65 5,5 0 0 1 -1.13,-3.21 5.08,5.08 0 0 1 0.93,-3 5.73,5.73 0 0 1 2.56,-2 8.09,8.09 0 0 1 3,-0.66 17.14,17.14 0 0 1 3.2,0.27 8.11,8.11 0 0 1 2.45,0.86 35.73,35.73 0 0 1 0.33,3.76 v 0.81 h -0.55 -0.35 a 7.25,7.25 0 0 0 -2.3,-3.3 5,5 0 0 0 -3,-1.22 3.33,3.33 0 0 0 -2.44,0.92 3.22,3.22 0 0 0 -0.93,2.4 3,3 0 0 0 0.76,2 10.06,10.06 0 0 0 3.52,2 18.8,18.8 0 0 1 4.05,2.09 6,6 0 0 1 1.87,2.35 6.62,6.62 0 0 1 0.6,2.64 5.25,5.25 0 0 1 -1.14,3.24 6.09,6.09 0 0 1 -2.87,2.13 9.2,9.2 0 0 1 -3.07,0.61 14.4,14.4 0 0 1 -5.88,-1.18 0.94,0.94 0 0 1 -0.27,-0.75 c 0,-0.15 0,-0.39 -0.05,-0.73 -0.27,-2.26 -0.41,-3.6 -0.41,-4 a 0.51,0.51 0 0 1 0.13,-0.4 1.33,1.33 0 0 1 0.66,-0.09 z"
       id="path859" />
    <path
       class="cls-2"
       d="m 719,262.23 h 0.77 l 0.11,2.39 v 3.09 h 0.6 c 0.43,0 1.26,0 2.48,-0.1 0.79,0 1.54,-0.07 2.26,-0.07 h 1.51 c 0,0.34 0,0.6 0,0.81 a 5.66,5.66 0 0 1 -0.15,1 h -0.43 l -3.89,0.12 -1.93,0.05 -0.45,0.05 a 4.64,4.64 0 0 0 -0.2,1.46 l 0.07,3.77 v 6.63 a 6,6 0 0 0 0.68,3.46 2.27,2.27 0 0 0 2,0.88 13.8,13.8 0 0 0 2.46,-0.4 4.48,4.48 0 0 0 1.48,-0.83 h 0.23 a 0.48,0.48 0 0 1 0.5,0.5 v 0.18 a 6.58,6.58 0 0 1 -2.47,1.72 10.51,10.51 0 0 1 -3.71,0.54 4.5,4.5 0 0 1 -2.69,-0.76 3.28,3.28 0 0 1 -1.37,-1.78 20.38,20.38 0 0 1 -0.3,-4.49 l 0.1,-5.65 v -2.72 -1 c 0,-0.47 0,-0.94 0,-1.41 h -0.43 l -2.06,0.07 h -0.2 a 0.56,0.56 0 0 1 -0.41,-0.13 0.39,0.39 0 0 1 -0.14,-0.3 0.66,0.66 0 0 1 0.19,-0.49 4.56,4.56 0 0 1 1.14,-0.59 5.8,5.8 0 0 0 1.52,-1 8.13,8.13 0 0 0 1.47,-1.7 13.61,13.61 0 0 0 0.85,-1.91 c 0.08,-0.62 0.28,-1.11 0.41,-1.39 z"
       id="path861" />
    <path
       class="cls-2"
       d="m 729.3,269.21 v -0.74 c 1.09,-0.32 1.67,-0.51 1.76,-0.56 a 8.06,8.06 0 0 0 1.89,-1.23 8.43,8.43 0 0 0 1.67,-1.87 3.55,3.55 0 0 1 0.48,-0.05 h 0.3 c 0.07,0.8 0.1,1.39 0.1,1.76 0,0.08 0,0.46 0,1.13 v 1.35 7.23 l -0.08,7.66 a 1.83,1.83 0 0 0 0.3,1.29 4.76,4.76 0 0 0 1.93,0.82 12.58,12.58 0 0 1 1.51,0.48 0.84,0.84 0 0 1 0.08,0.3 0.78,0.78 0 0 1 -0.13,0.38 c -0.65,0 -1.49,-0.06 -2.51,-0.13 q -2.08,-0.18 -2.76,-0.18 l -4,0.13 a 13.66,13.66 0 0 0 -1.46,0.13 1.93,1.93 0 0 1 -0.4,-0.08 0.58,0.58 0 0 1 -0.12,-0.3 c 0,-0.24 0.15,-0.42 0.47,-0.55 0.07,0 0.92,-0.23 2.56,-0.58 a 1.66,1.66 0 0 0 1.06,-0.5 2.69,2.69 0 0 0 0.43,-1.68 q 0,-1.94 0,-10.58 a 8.87,8.87 0 0 0 -0.15,-2.16 2,2 0 0 0 -0.67,-0.69 7.39,7.39 0 0 0 -2.26,-0.78 z m 2.11,-13 a 1.94,1.94 0 0 1 0.64,-1.44 2.18,2.18 0 0 1 1.55,-0.6 2.29,2.29 0 0 1 1.63,0.68 2,2 0 0 1 0.7,1.46 2.06,2.06 0 0 1 -0.7,1.47 2.26,2.26 0 0 1 -1.63,0.69 2.12,2.12 0 0 1 -1.56,-0.63 2.2,2.2 0 0 1 -0.63,-1.66 z"
       id="path863" />
    <path
       class="cls-2"
       d="m 747.84,262.23 h 0.77 l 0.1,2.39 -0.05,3.09 h 0.61 c 0.43,0 1.26,0 2.48,-0.1 0.79,0 1.54,-0.07 2.26,-0.07 h 1.51 c 0,0.34 0.05,0.6 0.05,0.81 a 5.66,5.66 0 0 1 -0.15,1 H 755 l -3.89,0.12 -1.93,0.05 -0.46,0.05 a 5,5 0 0 0 -0.2,1.46 l 0.08,3.77 -0.05,6.63 c 0,1.74 0.22,2.89 0.68,3.46 a 2.27,2.27 0 0 0 2,0.88 13.8,13.8 0 0 0 2.46,-0.4 4.58,4.58 0 0 0 1.48,-0.83 h 0.22 a 0.5,0.5 0 0 1 0.37,0.14 0.49,0.49 0 0 1 0.14,0.36 v 0.18 a 6.58,6.58 0 0 1 -2.47,1.72 10.51,10.51 0 0 1 -3.71,0.54 4.55,4.55 0 0 1 -2.7,-0.76 3.3,3.3 0 0 1 -1.36,-1.78 19.54,19.54 0 0 1 -0.31,-4.49 l 0.1,-5.65 v -2.72 -1 c 0,-0.47 0,-0.94 -0.05,-1.41 h -0.43 l -2.06,0.07 h -0.2 a 0.56,0.56 0 0 1 -0.41,-0.13 0.39,0.39 0 0 1 -0.14,-0.3 0.66,0.66 0 0 1 0.19,-0.49 4.36,4.36 0 0 1 1.14,-0.59 5.8,5.8 0 0 0 1.52,-1 8.13,8.13 0 0 0 1.47,-1.7 14.94,14.94 0 0 0 0.85,-1.91 c 0.17,-0.62 0.37,-1.11 0.51,-1.39 z"
       id="path865" />
    <path
       class="cls-2"
       d="m 757.5,267.33 h 1.88 l 0.82,0.05 0.66,-0.05 c 1.71,0 2.78,0 3.2,0.05 v 0.47 q 0,3.54 -0.1,6.86 c -0.05,1.31 -0.07,2.05 -0.07,2.23 a 29.61,29.61 0 0 0 0.29,5.53 2.87,2.87 0 0 0 1.36,1.77 4.81,4.81 0 0 0 2.58,0.67 8.38,8.38 0 0 0 3.51,-0.77 10.43,10.43 0 0 0 2.85,-1.87 15.22,15.22 0 0 0 0.13,-2.11 c 0,-2.5 0,-4.18 0.08,-5.05 0,-0.52 0,-1 0,-1.35 0,-2.72 -0.13,-4.25 -0.4,-4.6 -0.27,-0.35 -1.29,-0.62 -3.06,-0.8 q -0.88,-0.11 -1.29,-0.18 a 1.13,1.13 0 0 1 -0.2,-0.5 l 0.08,-0.28 a 11.1,11.1 0 0 1 1.28,-0.07 l 4,0.05 2.26,-0.05 a 4.52,4.52 0 0 1 0.53,0 l 0.05,1.83 c -0.12,2.55 -0.18,5.7 -0.2,9.45 v 2 l 0.1,3.42 a 1,1 0 0 0 0.4,0.47 3.61,3.61 0 0 0 1.23,0.13 h 0.23 q 0.33,0 1.86,0.15 c 0,0.22 0,0.38 0,0.48 v 0.27 a 47.71,47.71 0 0 0 -5.45,1.46 14.16,14.16 0 0 1 -1.4,0.4 9.71,9.71 0 0 1 -0.13,-1.08 v -2 c 0,-0.09 0,-0.31 0,-0.68 l -0.76,0.55 a 23.1,23.1 0 0 1 -4.19,2.59 6.56,6.56 0 0 1 -2.87,0.73 5.39,5.39 0 0 1 -4.29,-2 c -1.12,-1.31 -1.68,-3.53 -1.68,-6.68 0,-0.17 0,-0.47 0,-0.91 0.07,-0.8 0.1,-1.36 0.1,-1.68 0,-0.12 0,-0.48 0,-1.1 0,-0.27 0,-0.51 0,-0.71 0,-0.2 0,-0.49 0,-1 0,-0.51 0,-0.9 0,-1.12 0,-0.22 0,-0.54 0,-0.75 v -1.34 -0.7 a 0.93,0.93 0 0 0 -0.4,-0.73 c -1.05,-0.28 -1.74,-0.44 -2.07,-0.49 a 3.47,3.47 0 0 1 -0.87,-0.21 z"
       id="path867" />
    <path
       class="cls-2"
       d="m 790.07,262.23 h 0.78 l 0.1,2.39 -0.05,3.09 h 0.61 c 0.43,0 1.26,0 2.48,-0.1 0.79,0 1.54,-0.07 2.26,-0.07 h 1.51 c 0,0.34 0,0.6 0,0.81 a 5.66,5.66 0 0 1 -0.15,1 h -0.43 l -3.89,0.12 -1.93,0.05 -0.46,0.05 a 5,5 0 0 0 -0.2,1.46 l 0.08,3.77 -0.05,6.63 c 0,1.74 0.22,2.89 0.68,3.46 a 2.25,2.25 0 0 0 1.95,0.88 13.74,13.74 0 0 0 2.47,-0.4 4.58,4.58 0 0 0 1.48,-0.83 h 0.22 a 0.53,0.53 0 0 1 0.37,0.14 0.49,0.49 0 0 1 0.14,0.36 v 0.18 a 6.58,6.58 0 0 1 -2.47,1.72 10.51,10.51 0 0 1 -3.71,0.54 4.51,4.51 0 0 1 -2.7,-0.76 3.37,3.37 0 0 1 -1.37,-1.78 20.38,20.38 0 0 1 -0.3,-4.49 l 0.1,-5.65 v -2.72 -1 c 0,-0.47 0,-0.94 -0.05,-1.41 h -0.43 l -2.06,0.07 h -0.2 a 0.56,0.56 0 0 1 -0.41,-0.13 0.36,0.36 0 0 1 -0.14,-0.3 0.66,0.66 0 0 1 0.19,-0.49 4.36,4.36 0 0 1 1.14,-0.59 5.8,5.8 0 0 0 1.52,-1 8.13,8.13 0 0 0 1.47,-1.7 14.94,14.94 0 0 0 0.85,-1.91 c 0.27,-0.62 0.47,-1.11 0.6,-1.39 z"
       id="path869" />
    <path
       class="cls-2"
       d="m 818.8,273.78 -10.07,0.07 h -1.91 c -0.77,0 -1.55,0 -2.36,0.11 a 4.27,4.27 0 0 0 -0.22,1 v 0.25 0.25 1.23 a 9.83,9.83 0 0 0 1,3.75 7.51,7.51 0 0 0 2.77,3.39 8.47,8.47 0 0 0 4.48,1.25 9,9 0 0 0 2.29,-0.36 11.61,11.61 0 0 0 2.41,-1.28 L 819,282 l 0.15,1 a 2.42,2.42 0 0 1 0,0.37 10.76,10.76 0 0 1 -2.86,2.51 13.58,13.58 0 0 1 -3.52,1.59 12.4,12.4 0 0 1 -2.81,0.22 9,9 0 0 1 -3.52,-0.73 8.57,8.57 0 0 1 -4,-3.55 11.33,11.33 0 0 1 -1.47,-5.94 12.68,12.68 0 0 1 0.42,-2.84 14.79,14.79 0 0 1 1.49,-3.69 7.42,7.42 0 0 1 1.78,-2.18 11.91,11.91 0 0 1 2.64,-1.69 9.86,9.86 0 0 1 3.79,-0.67 7.43,7.43 0 0 1 6.82,3.76 6.84,6.84 0 0 1 1,3.27 z m -14,-0.9 h 1.2 q 1.28,0 7.64,-0.41 a 3.16,3.16 0 0 0 1.23,-0.2 1.32,1.32 0 0 0 0.45,-0.85 4,4 0 0 0 -0.51,-1.77 3.4,3.4 0 0 0 -1.54,-1.53 5.17,5.17 0 0 0 -2.42,-0.54 5.69,5.69 0 0 0 -4.67,2.18 5.05,5.05 0 0 0 -1.39,3.12 z"
       id="path871" />
    <path
       class="cls-2"
       d="m 847.52,291.86 a 1.54,1.54 0 0 0 1.18,0.47 1,1 0 0 0 0.86,-0.54 3.68,3.68 0 0 0 0.49,-1.17 c 0.29,-1.13 0.58,-2.4 0.89,-3.8 0.31,-1.4 0.59,-2.81 0.87,-4.24 l 1.38,-7.23 h -2.27 c -0.17,0 -0.25,-0.11 -0.25,-0.33 l 0.11,-0.45 a 0.22,0.22 0 0 1 0.23,-0.19 h 2.38 l 0.36,-1.94 c 0.24,-1.17 0.48,-2.15 0.71,-2.93 a 6.33,6.33 0 0 1 1.17,-2.16 2.62,2.62 0 0 1 2.13,-1 3.34,3.34 0 0 1 0.87,0.11 2.55,2.55 0 0 1 0.75,0.35 1.69,1.69 0 0 1 0.55,0.58 1.53,1.53 0 0 1 0.21,0.81 1.7,1.7 0 0 1 -0.39,1.12 1.25,1.25 0 0 1 -1,0.48 1,1 0 0 1 -0.69,-0.26 0.8,0.8 0 0 1 -0.29,-0.63 1.29,1.29 0 0 1 0.34,-0.89 1.56,1.56 0 0 1 0.84,-0.49 1.67,1.67 0 0 0 -1.24,-0.47 0.89,0.89 0 0 0 -0.62,0.29 2.07,2.07 0 0 0 -0.45,0.68 20.4,20.4 0 0 0 -0.49,2 c -0.22,1 -0.38,1.83 -0.49,2.4 l -0.38,1.94 H 858 a 0.2,0.2 0 0 1 0.17,0.09 0.37,0.37 0 0 1 0.06,0.21 l -0.11,0.47 c 0,0.14 -0.08,0.2 -0.23,0.2 h -2.79 l -1.41,7.26 c -0.32,1.7 -0.55,2.91 -0.7,3.63 a 28.45,28.45 0 0 1 -0.81,2.76 10.3,10.3 0 0 1 -1.47,2.87 2.57,2.57 0 0 1 -2.07,1.16 2.69,2.69 0 0 1 -1.6,-0.5 1.56,1.56 0 0 1 -0.72,-1.35 1.67,1.67 0 0 1 0.39,-1.11 1.26,1.26 0 0 1 1,-0.48 1,1 0 0 1 0.69,0.25 0.81,0.81 0 0 1 0.28,0.64 1.32,1.32 0 0 1 -0.34,0.89 1.4,1.4 0 0 1 -0.82,0.5 z"
       id="path873" />
    <path
       class="cls-2"
       d="m 864.25,287.33 a 3.78,3.78 0 0 1 -2.2,-0.66 4.16,4.16 0 0 1 -1.45,-1.73 5.6,5.6 0 0 1 -0.49,-2.36 8,8 0 0 1 0.59,-2.92 10.47,10.47 0 0 1 1.6,-2.79 8.17,8.17 0 0 1 2.34,-2 5.67,5.67 0 0 1 2.81,-0.76 3.77,3.77 0 0 1 2.23,0.67 4.06,4.06 0 0 1 1.43,1.74 5.71,5.71 0 0 1 0.48,2.35 8.62,8.62 0 0 1 -1,3.89 9.45,9.45 0 0 1 -2.7,3.29 5.92,5.92 0 0 1 -3.64,1.28 z m 0.06,-0.71 a 3.53,3.53 0 0 0 2.83,-1.54 11.09,11.09 0 0 0 1.83,-3.69 13.23,13.23 0 0 0 0.63,-3.66 3.81,3.81 0 0 0 -0.55,-2.05 1.82,1.82 0 0 0 -1.66,-0.88 3.53,3.53 0 0 0 -2.84,1.54 10.89,10.89 0 0 0 -1.82,3.69 13.3,13.3 0 0 0 -0.63,3.67 3.76,3.76 0 0 0 0.56,2 1.81,1.81 0 0 0 1.65,0.92 z"
       id="path875" />
    <path
       class="cls-2"
       d="m 876.29,286.6 a 0.79,0.79 0 0 1 0,-0.26 l 2.21,-8.85 a 8.11,8.11 0 0 0 0.23,-1.58 c 0,-0.74 -0.25,-1.11 -0.76,-1.11 a 1,1 0 0 0 -0.75,0.43 3.9,3.9 0 0 0 -0.59,1.1 10.92,10.92 0 0 0 -0.4,1.28 c -0.1,0.4 -0.19,0.74 -0.27,1 -0.08,0.26 -0.11,0.21 -0.2,0.21 h -0.53 c -0.13,0 -0.2,-0.1 -0.2,-0.3 0,-0.2 0.19,-0.73 0.35,-1.31 a 9,9 0 0 1 0.58,-1.57 3.22,3.22 0 0 1 0.85,-1.14 1.83,1.83 0 0 1 1.22,-0.44 2.35,2.35 0 0 1 1.6,0.58 2.31,2.31 0 0 1 0.81,1.47 4.26,4.26 0 0 1 3.45,-2.05 4.49,4.49 0 0 1 2,0.43 1.44,1.44 0 0 1 0.88,1.39 1.58,1.58 0 0 1 -0.4,1.09 1.25,1.25 0 0 1 -1,0.46 1,1 0 0 1 -0.69,-0.24 0.79,0.79 0 0 1 -0.29,-0.63 1.42,1.42 0 0 1 1.07,-1.35 2.48,2.48 0 0 0 -1.6,-0.44 c -1.37,0 -2.59,1.17 -3.64,3.52 l -2,8.1 a 1.35,1.35 0 0 1 -0.42,0.66 1.09,1.09 0 0 1 -0.7,0.25 0.85,0.85 0 0 1 -0.56,-0.2 0.69,0.69 0 0 1 -0.25,-0.5 z"
       id="path877" />
    <path
       class="cls-2"
       d="m 900.6,284.75 a 3.09,3.09 0 0 1 0.12,-0.91 l 2.1,-8.49 H 900 a 0.21,0.21 0 0 1 -0.17,-0.1 0.39,0.39 0 0 1 -0.07,-0.23 l 0.11,-0.45 a 0.27,0.27 0 0 1 0.25,-0.19 h 2.9 l 1.21,-4.82 a 1.24,1.24 0 0 1 0.41,-0.62 1,1 0 0 1 0.69,-0.25 0.8,0.8 0 0 1 0.57,0.2 0.67,0.67 0 0 1 0.23,0.53 0.7,0.7 0 0 1 0,0.24 l -1.13,4.72 h 2.72 a 0.2,0.2 0 0 1 0.17,0.11 0.32,0.32 0 0 1 0.07,0.19 l -0.13,0.47 c 0,0.14 -0.08,0.2 -0.23,0.2 h -2.85 l -2.13,8.58 a 6.27,6.27 0 0 0 -0.24,1.59 c 0,0.74 0.26,1.1 0.77,1.1 a 2.39,2.39 0 0 0 2,-1.13 11.86,11.86 0 0 0 1.41,-2.71 c 0.05,-0.13 0.12,-0.2 0.22,-0.2 h 0.53 a 0.17,0.17 0 0 1 0.14,0.09 0.32,0.32 0 0 1 0.06,0.2 c -1.16,3 -2.63,4.46 -4.43,4.46 a 2.33,2.33 0 0 1 -1.78,-0.74 2.63,2.63 0 0 1 -0.7,-1.84 z"
       id="path879" />
    <path
       class="cls-2"
       d="m 909.93,286.57 a 0.43,0.43 0 0 1 0,-0.2 l 4.26,-17.1 a 4.86,4.86 0 0 0 0.14,-0.78 c 0,-0.36 -0.62,-0.53 -1.87,-0.53 a 0.22,0.22 0 0 1 -0.18,-0.11 0.47,0.47 0 0 1 -0.07,-0.22 l 0.12,-0.46 a 0.25,0.25 0 0 1 0.24,-0.19 l 3.79,-0.31 h 0.08 0.09 c 0,0 0.06,0 0.06,0.06 a 0.89,0.89 0 0 0 0.07,0.2 l -2.24,9.07 a 5,5 0 0 1 3.87,-1.91 2.76,2.76 0 0 1 3,3 10.45,10.45 0 0 1 -0.55,3.06 c -0.37,1.18 -0.81,2.44 -1.33,3.78 a 8.16,8.16 0 0 0 -0.44,1.91 c 0,0.52 0.2,0.78 0.62,0.78 a 1.6,1.6 0 0 0 1.24,-0.55 4.22,4.22 0 0 0 0.77,-1.2 q 0.27,-0.63 0.54,-1.44 c 0.18,-0.55 0.31,-0.83 0.38,-0.85 H 923 a 0.18,0.18 0 0 1 0.15,0.09 0.32,0.32 0 0 1 0.06,0.2 10.86,10.86 0 0 1 -0.74,2.07 5.61,5.61 0 0 1 -1.24,1.69 2.5,2.5 0 0 1 -1.75,0.7 2.08,2.08 0 0 1 -1.59,-0.67 2.36,2.36 0 0 1 -0.61,-1.64 4.22,4.22 0 0 1 0.2,-1.18 c 0.55,-1.43 1,-2.77 1.4,-4 a 11.21,11.21 0 0 0 0.57,-3.14 2.91,2.91 0 0 0 -0.28,-1.32 1,1 0 0 0 -1,-0.55 3.44,3.44 0 0 0 -2.59,1.1 10.21,10.21 0 0 0 -1.87,2.85 l -1.94,7.73 a 1.16,1.16 0 0 1 -1.09,0.85 0.85,0.85 0 0 1 -0.56,-0.2 0.72,0.72 0 0 1 -0.19,-0.59 z"
       id="path881" />
    <path
       class="cls-2"
       d="m 930.83,287.33 a 3.43,3.43 0 0 1 -2.24,-0.74 4.33,4.33 0 0 1 -1.35,-1.91 6.71,6.71 0 0 1 -0.45,-2.43 8.5,8.5 0 0 1 0.52,-2.93 8.87,8.87 0 0 1 1.51,-2.65 7.64,7.64 0 0 1 2.33,-1.89 6.15,6.15 0 0 1 2.88,-0.69 3.25,3.25 0 0 1 2,0.65 2.19,2.19 0 0 1 0.85,1.82 2.91,2.91 0 0 1 -2.23,3.05 18.47,18.47 0 0 1 -5.31,0.68 h -0.08 c -0.11,0.47 -0.2,0.86 -0.25,1.16 -0.05,0.3 -0.12,0.63 -0.16,1 a 7.83,7.83 0 0 0 -0.07,1 4.55,4.55 0 0 0 0.5,2.18 1.68,1.68 0 0 0 1.6,1 5.62,5.62 0 0 0 3,-0.85 8.34,8.34 0 0 0 2.4,-2.23 h 0.32 c 0.25,0.22 0.38,0.38 0.38,0.47 a 0.17,0.17 0 0 1 0,0.12 7.88,7.88 0 0 1 -2.69,2.34 7.23,7.23 0 0 1 -3.46,0.85 z m -1.37,-7.75 a 15.47,15.47 0 0 0 4.42,-0.56 2.36,2.36 0 0 0 1.89,-2.46 1.67,1.67 0 0 0 -0.53,-1.27 1.75,1.75 0 0 0 -1.26,-0.49 3.5,3.5 0 0 0 -2.86,1.41 9.1,9.1 0 0 0 -1.66,3.37 z"
       id="path883" />
    <path
       class="cls-2"
       d="m 493.55,337.87 a 6.75,6.75 0 0 1 2.81,-0.75 5.34,5.34 0 0 0 1.89,-0.28 1,1 0 0 0 0.3,-0.37 21.61,21.61 0 0 0 0.55,-5 q 0.22,-5.35 0.74,-14.24 c 0.28,-4.52 0.41,-7.34 0.41,-8.46 v -0.65 c -1.21,-0.26 -3.12,-0.52 -5.74,-0.81 a 1.2,1.2 0 0 1 -0.26,-0.58 1.23,1.23 0 0 1 0.18,-0.45 2.13,2.13 0 0 1 0.65,-0.15 7.23,7.23 0 0 1 0.88,0.1 24.56,24.56 0 0 0 3.38,0.18 c 0.47,0 1.27,0 2.41,-0.12 l 1.35,-0.08 a 3.44,3.44 0 0 1 0.93,0.15 2.14,2.14 0 0 1 0.38,0.48 l 1.06,2.36 7.1,15.72 3,6.6 a 110.26,110.26 0 0 0 5.4,-12.28 3.71,3.71 0 0 1 0.3,-0.73 9.53,9.53 0 0 0 0.43,-1 q 0.2,-0.52 1.62,-4 c 0.39,-0.94 0.7,-1.74 0.93,-2.41 q 1.42,-4 1.68,-4.6 a 2.21,2.21 0 0 1 0.83,-0.2 9.2,9.2 0 0 1 1,0.08 c 0.94,0.05 2.47,0.07 4.58,0.07 1.31,0 2.39,0 3.23,-0.05 a 2.73,2.73 0 0 1 0,0.4 2,2 0 0 1 -0.07,0.48 4.4,4.4 0 0 1 -1.93,0.48 12.44,12.44 0 0 0 -2.84,0.35 1.28,1.28 0 0 0 -0.77,0.58 10.35,10.35 0 0 0 -0.29,2.31 v 1.15 1.21 q 0,3.76 0.2,12.66 v 4.92 3.16 a 7.17,7.17 0 0 0 0.18,2.2 1.79,1.79 0 0 0 1,0.64 30.87,30.87 0 0 0 4.42,0.93 0.38,0.38 0 0 1 0.18,0.33 c 0,0.15 0,0.31 0,0.5 h -1.16 c -1,0 -2.06,0 -3.22,-0.09 l -1.86,-0.09 q -5.16,0 -6.85,0.12 c -0.68,0.05 -1.12,0.08 -1.3,0.08 a 0.8,0.8 0 0 1 -0.38,-0.1 v -0.32 a 1.69,1.69 0 0 1 0.07,-0.48 7.76,7.76 0 0 1 2.26,-0.48 8.11,8.11 0 0 0 2.31,-0.9 20.13,20.13 0 0 0 0.23,-3.9 l -0.07,-5.08 c 0,-0.55 0,-1.58 0.08,-3.09 0.08,-1.51 0.09,-4 0.09,-7.36 q 0,-4 -0.2,-6.14 c -0.28,0.59 -0.84,1.86 -1.68,3.82 l -0.37,0.95 v 0.16 l -3.7,8.78 -1.36,3.42 -1.72,4.12 c -0.75,1.9 -1.4,3.57 -1.93,5 -0.23,0.67 -0.42,1.19 -0.57,1.58 h -0.59 q -2.84,-8.28 -6.78,-17 -3.94,-8.72 -5.51,-11.5 -0.21,1.08 -0.47,6.28 -0.33,6.33 -0.34,13.94 a 45,45 0 0 0 0.36,5.35 1.63,1.63 0 0 0 0.72,1.26 7.58,7.58 0 0 0 3.24,0.47 11.65,11.65 0 0 1 1.91,0.15 1.53,1.53 0 0 1 0.18,0.57 1.25,1.25 0 0 1 -0.13,0.43 l -7.79,-0.27 c -0.57,0 -1.46,0 -2.66,0.11 q -1,0.06 -2.88,0.09 z"
       id="path885" />
    <path
       class="cls-2"
       d="m 556.48,335.06 a 1.16,1.16 0 0 1 0.16,0.47 3.23,3.23 0 0 1 -0.61,1.33 5.42,5.42 0 0 1 -1.73,1.84 3.11,3.11 0 0 1 -1.66,0.38 3.29,3.29 0 0 1 -2.71,-1.11 4.69,4.69 0 0 1 -0.78,-2.34 l -2.81,2 a 11.51,11.51 0 0 1 -2.26,1.08 12,12 0 0 1 -3,0.33 2.59,2.59 0 0 1 -2.76,-2.74 q 0,-1.72 2.13,-4.14 a 15.51,15.51 0 0 1 5.78,-3.94 c 1.71,-0.72 2.76,-1.18 3.14,-1.39 0,-0.55 0,-1.15 0,-1.8 0,-2.13 -0.3,-3.57 -0.89,-4.32 a 3.06,3.06 0 0 0 -2.56,-1.13 4.8,4.8 0 0 0 -3.25,1.35 6,6 0 0 0 -1.41,3.22 5.15,5.15 0 0 1 -0.58,1.4 3.5,3.5 0 0 1 -1.73,0.71 1.64,1.64 0 0 1 -1,-0.33 0.49,0.49 0 0 1 -0.25,-0.4 8.55,8.55 0 0 1 1.39,-2.95 9.25,9.25 0 0 1 3.51,-3.44 8.14,8.14 0 0 1 3.71,-1.15 9.84,9.84 0 0 1 3.21,0.39 4.3,4.3 0 0 1 1.86,1.37 4.4,4.4 0 0 1 1,2.14 38.27,38.27 0 0 1 0.1,3.94 l -0.07,4 v 2.92 c 0,0.38 0,0.71 0,1 q 0,0.72 0,1.08 a 1.86,1.86 0 0 0 0.48,1.33 1.52,1.52 0 0 0 1.13,0.5 2,2 0 0 0 1.63,-1 l 0.3,-0.4 a 2.25,2.25 0 0 1 0.53,-0.2 z m -7.35,-0.73 c 0.11,-2.13 0.17,-3.63 0.17,-4.5 0,-0.45 0,-1.06 -0.07,-1.83 a 17.12,17.12 0 0 0 -3.58,1.83 10.64,10.64 0 0 0 -3,2.84 3.86,3.86 0 0 0 -0.81,2.19 2.22,2.22 0 0 0 0.67,1.63 2.34,2.34 0 0 0 1.68,0.65 4.39,4.39 0 0 0 1.89,-0.55 12.9,12.9 0 0 0 3.05,-2.26 z"
       id="path887" />
    <path
       class="cls-2"
       d="m 564.14,313.66 h 0.78 l 0.1,2.38 v 3.09 h 0.61 c 0.43,0 1.26,0 2.48,-0.11 0.79,-0.05 1.54,-0.07 2.26,-0.07 h 1.51 c 0,0.34 0,0.61 0,0.81 a 5.55,5.55 0 0 1 -0.15,1 h -0.43 l -3.89,0.12 -1.93,0.05 h -0.46 a 5,5 0 0 0 -0.2,1.46 l 0.08,3.77 v 6.63 c 0,1.74 0.22,2.89 0.68,3.46 a 2.25,2.25 0 0 0 2,0.88 13.74,13.74 0 0 0 2.47,-0.4 4.4,4.4 0 0 0 1.48,-0.83 h 0.22 a 0.53,0.53 0 0 1 0.37,0.14 0.48,0.48 0 0 1 0.13,0.36 v 0.18 a 6.47,6.47 0 0 1 -2.47,1.72 10.51,10.51 0 0 1 -3.78,0.7 4.58,4.58 0 0 1 -2.7,-0.75 3.38,3.38 0 0 1 -1.37,-1.79 20.38,20.38 0 0 1 -0.3,-4.49 l 0.1,-5.65 v -2.71 -1 c 0,-0.47 0,-0.94 0,-1.41 h -0.43 l -2.06,0.07 h -0.2 a 0.56,0.56 0 0 1 -0.41,-0.13 0.36,0.36 0 0 1 -0.14,-0.3 0.66,0.66 0 0 1 0.19,-0.49 4.72,4.72 0 0 1 1.14,-0.59 6,6 0 0 0 1.52,-1 8.34,8.34 0 0 0 1.47,-1.69 16.42,16.42 0 0 0 0.85,-1.91 c 0.15,-0.73 0.34,-1.16 0.48,-1.5 z"
       id="path889" />
    <path
       class="cls-2"
       d="m 572.93,337.85 a 16.83,16.83 0 0 0 3.39,-0.81 c 0.19,-0.12 0.28,-0.38 0.28,-0.8 v -1.66 -2.93 l -0.05,-7.48 v -2.79 -2 l 0.08,-2.43 q 0,-5.73 -0.11,-6.84 a 2.26,2.26 0 0 0 -0.44,-1.39 8.52,8.52 0 0 0 -3.32,-1.21 v -0.12 a 4.26,4.26 0 0 1 0.05,-0.51 6.86,6.86 0 0 0 0.68,-0.12 5.12,5.12 0 0 1 0.63,-0.1 19.44,19.44 0 0 0 4.34,-1.66 h 1.23 c 0,0.47 0,2 0,4.45 v 3.19 4.12 l -0.1,5.08 c 0,0.3 0,0.63 0.05,1 a 23.7,23.7 0 0 1 2.32,-2.44 11.41,11.41 0 0 1 2.79,-1.67 8.08,8.08 0 0 1 3.12,-0.62 6.07,6.07 0 0 1 5.06,2.61 7.23,7.23 0 0 1 1.13,4.34 l -0.08,2.56 v 1.43 l -0.1,2.48 c -0.07,2.06 -0.1,3.28 -0.1,3.66 0,0.38 0,1 0,1.76 l 1.43,0.32 a 22.21,22.21 0 0 1 2.21,0.56 v 0.77 l -5.34,-0.15 c -0.31,0 -1.13,0 -2.47,0.1 -0.82,0 -1.29,0.05 -1.43,0.05 h -0.55 a 0.83,0.83 0 0 1 -0.12,-0.37 V 338 a 2,2 0 0 1 1.3,-0.6 l 1.51,-0.35 a 0.93,0.93 0 0 0 0.35,-0.53 c 0.07,-0.44 0.14,-2.59 0.23,-6.47 l 0.05,-1.86 a 16.15,16.15 0 0 0 -0.46,-4.86 3.51,3.51 0 0 0 -1.6,-2.12 5.23,5.23 0 0 0 -2.88,-0.79 5.78,5.78 0 0 0 -2.56,0.58 9.57,9.57 0 0 0 -2,1.48 8.52,8.52 0 0 0 -1.61,1.8 3.27,3.27 0 0 0 -0.31,1.65 v 1.76 l -0.05,1.82 c 0,0.15 0,1.2 0.07,3.13 v 1.6 1.76 a 3.78,3.78 0 0 0 0.07,0.55 l 3.55,0.85 a 6.33,6.33 0 0 1 0.82,0.31 l 0.08,0.28 a 1.07,1.07 0 0 1 -0.13,0.41 h -1.1 -2 l -4.32,0.05 -3.24,0.1 -0.75,-0.05 v -0.17 a 1,1 0 0 1 0.4,-0.48 z"
       id="path891" />
    <path
       class="cls-2"
       d="m 618.09,325.21 -10.07,0.08 h -1.91 c -0.77,0 -1.56,0 -2.36,0.11 a 4.46,4.46 0 0 0 -0.23,1 v 0.25 0.25 1.23 a 9.78,9.78 0 0 0 1,3.76 7.35,7.35 0 0 0 2.76,3.38 8.5,8.5 0 0 0 4.48,1.25 9.45,9.45 0 0 0 2.29,-0.35 11.86,11.86 0 0 0 2.41,-1.28 l 1.81,-1.49 0.15,1 a 2.64,2.64 0 0 1 0,0.38 11,11 0 0 1 -2.86,2.51 13.73,13.73 0 0 1 -3.56,1.61 12.14,12.14 0 0 1 -2.81,0.23 9,9 0 0 1 -3.51,-0.73 8.59,8.59 0 0 1 -4,-3.56 11.33,11.33 0 0 1 -1.47,-5.94 12.43,12.43 0 0 1 0.41,-2.83 15.14,15.14 0 0 1 1.5,-3.7 7.27,7.27 0 0 1 1.78,-2.18 11.73,11.73 0 0 1 2.64,-1.68 9.82,9.82 0 0 1 3.79,-0.68 7.54,7.54 0 0 1 3.81,0.85 7.7,7.7 0 0 1 3,2.92 6.81,6.81 0 0 1 1,3.26 z m -14,-0.9 h 1.18 c 0.86,0 3.4,-0.14 7.64,-0.4 a 3.33,3.33 0 0 0 1.23,-0.2 1.36,1.36 0 0 0 0.45,-0.86 4.05,4.05 0 0 0 -0.5,-1.77 3.5,3.5 0 0 0 -1.54,-1.53 5.24,5.24 0 0 0 -2.43,-0.54 5.71,5.71 0 0 0 -4.67,2.18 5.11,5.11 0 0 0 -1.38,3.12 z"
       id="path893" />
    <path
       class="cls-2"
       d="m 620.62,337.62 a 2.58,2.58 0 0 1 1.11,-0.38 5,5 0 0 0 1.56,-0.4 1.85,1.85 0 0 0 0.6,-1.08 58.41,58.41 0 0 0 0.17,-6.35 43.9,43.9 0 0 0 -0.32,-6.91 4.64,4.64 0 0 0 -1.43,-0.55 l -1.16,-0.28 v -0.84 a 7.5,7.5 0 0 0 2.41,-1.11 16.35,16.35 0 0 0 2.56,-2.72 h 0.15 0.48 a 0.57,0.57 0 0 1 0.33,0.12 v 2.86 c 0,0.59 0,1.22 0.05,1.89 a 19.77,19.77 0 0 1 4.82,-3.42 8,8 0 0 1 3.28,-0.65 6.33,6.33 0 0 1 3.46,0.83 7.93,7.93 0 0 1 2.43,3 15.61,15.61 0 0 1 4.06,-3.09 8.32,8.32 0 0 1 3.68,-0.88 6.23,6.23 0 0 1 4.62,1.83 7.74,7.74 0 0 1 1.83,5.46 v 2.05 2.29 5.88 a 2.19,2.19 0 0 0 0.45,1.56 l 1.53,0.45 a 3.65,3.65 0 0 1 1,0.35 0.41,0.41 0 0 1 0.15,0.35 1.63,1.63 0 0 1 -0.15,0.66 h -0.17 l -2.53,-0.15 c -0.3,0 -0.78,0 -1.43,0 -0.8,0 -1.92,0 -3.35,0.1 h -1.28 -1.08 a 3.15,3.15 0 0 1 0,-0.4 1,1 0 0 1 0.18,-0.51 7.9,7.9 0 0 1 1.86,-0.49 c 0.79,-0.12 1.28,-0.35 1.47,-0.68 a 13.29,13.29 0 0 0 0.29,-3.91 q 0,-7.41 -0.18,-8.6 a 4.56,4.56 0 0 0 -1.6,-3 4.91,4.91 0 0 0 -3.26,-1.07 6,6 0 0 0 -2.94,0.79 10.71,10.71 0 0 0 -2.82,2.37 v 0.61 3.84 l -0.1,3 c 0,3 0,4.78 0.09,5.19 a 1.4,1.4 0 0 0 0.43,0.92 4.87,4.87 0 0 0 2,0.52 9.29,9.29 0 0 1 1.13,0.2 0.79,0.79 0 0 1 0.3,0.65 0.47,0.47 0 0 1 -0.23,0.45 h -0.42 -1.26 -7.31 -2 a 5.44,5.44 0 0 1 0,-0.55 v -0.3 A 8,8 0 0 1 636,337 a 8.78,8.78 0 0 0 1.61,-0.43 0.74,0.74 0 0 0 0.22,-0.32 9.68,9.68 0 0 0 0.18,-2 l 0.12,-2.92 -0.05,-3.28 v -1.84 a 6.75,6.75 0 0 0 -1.25,-4.51 4.06,4.06 0 0 0 -3.16,-1.41 8.09,8.09 0 0 0 -3.57,0.87 8.57,8.57 0 0 0 -3,2.36 q 0,0.71 0,1.29 l 0.1,8.43 a 8.64,8.64 0 0 0 0.32,3.16 2,2 0 0 0 1.29,0.53 5.87,5.87 0 0 1 2.09,0.56 0.5,0.5 0 0 1 0.22,0.45 c 0,0.13 0,0.29 0,0.48 -1.92,-0.14 -3.2,-0.2 -3.86,-0.2 -0.66,0 -1.27,0 -1.81,0 l -1.26,0.08 h -0.78 l -2.82,0.1 a 1.35,1.35 0 0 1 -0.05,-0.29 3.13,3.13 0 0 1 0.08,-0.49 z"
       id="path895" />
    <path
       class="cls-2"
       d="m 679.69,335.06 a 1.27,1.27 0 0 1 0.15,0.47 3.16,3.16 0 0 1 -0.6,1.33 5.52,5.52 0 0 1 -1.73,1.84 3.16,3.16 0 0 1 -1.66,0.38 3.28,3.28 0 0 1 -2.71,-1.11 4.69,4.69 0 0 1 -0.78,-2.34 l -2.82,2 a 11.25,11.25 0 0 1 -2.26,1.08 11.93,11.93 0 0 1 -3,0.33 2.68,2.68 0 0 1 -2,-0.77 2.72,2.72 0 0 1 -0.74,-2 q 0,-1.72 2.12,-4.14 a 15.59,15.59 0 0 1 5.78,-3.94 c 1.71,-0.72 2.76,-1.18 3.15,-1.39 0,-0.55 0.05,-1.15 0.05,-1.8 q 0,-3.19 -0.9,-4.32 a 3,3 0 0 0 -2.55,-1.13 4.8,4.8 0 0 0 -3.25,1.35 6,6 0 0 0 -1.41,3.22 5.49,5.49 0 0 1 -0.58,1.4 3.54,3.54 0 0 1 -1.73,0.71 1.67,1.67 0 0 1 -1,-0.33 0.49,0.49 0 0 1 -0.25,-0.4 8.76,8.76 0 0 1 1.39,-2.95 9.27,9.27 0 0 1 3.52,-3.44 8.11,8.11 0 0 1 3.7,-1.15 9.9,9.9 0 0 1 3.22,0.39 4.42,4.42 0 0 1 1.86,1.37 4.49,4.49 0 0 1 1,2.14 c 0.06,0.37 0.1,1.68 0.1,3.94 l -0.08,4 v 2.92 c 0,0.38 0,0.71 0,1 0,0.48 0,0.84 0,1.08 a 1.89,1.89 0 0 0 0.47,1.33 1.53,1.53 0 0 0 1.13,0.5 2,2 0 0 0 1.64,-1 l 0.3,-0.4 a 2.1,2.1 0 0 1 0.47,-0.17 z m -7.36,-0.73 q 0.18,-3.19 0.18,-4.5 c 0,-0.45 0,-1.06 -0.08,-1.83 a 17.37,17.37 0 0 0 -3.58,1.83 10.46,10.46 0 0 0 -3,2.84 3.86,3.86 0 0 0 -0.81,2.19 2.18,2.18 0 0 0 0.67,1.63 2.3,2.3 0 0 0 1.67,0.65 4.39,4.39 0 0 0 1.89,-0.55 12.7,12.7 0 0 0 3.06,-2.26 z"
       id="path897" />
    <path
       class="cls-2"
       d="m 687.35,313.66 h 0.78 l 0.1,2.38 -0.05,3.09 h 0.6 c 0.44,0 1.27,0 2.49,-0.11 0.78,-0.05 1.54,-0.07 2.26,-0.07 h 1.5 a 7.32,7.32 0 0 1 0.06,0.81 5.79,5.79 0 0 1 -0.16,1 h -0.42 l -3.89,0.12 -1.94,0.05 h -0.45 a 4.64,4.64 0 0 0 -0.2,1.46 l 0.07,3.77 -0.05,6.63 a 6,6 0 0 0 0.68,3.46 2.28,2.28 0 0 0 2,0.88 13.54,13.54 0 0 0 2.46,-0.4 4.3,4.3 0 0 0 1.48,-0.83 h 0.23 a 0.49,0.49 0 0 1 0.36,0.14 0.45,0.45 0 0 1 0.14,0.36 v 0.18 a 6.51,6.51 0 0 1 -2.48,1.72 10.45,10.45 0 0 1 -3.7,0.54 4.58,4.58 0 0 1 -2.7,-0.75 3.38,3.38 0 0 1 -1.37,-1.79 20.38,20.38 0 0 1 -0.3,-4.49 l 0.1,-5.65 v -2.71 -1 c 0,-0.47 0,-0.94 -0.05,-1.41 h -0.42 l -2.06,0.07 h -0.2 a 0.57,0.57 0 0 1 -0.42,-0.13 0.39,0.39 0 0 1 -0.14,-0.3 0.7,0.7 0 0 1 0.19,-0.49 5.2,5.2 0 0 1 1.14,-0.59 5.64,5.64 0 0 0 1.52,-1 8.34,8.34 0 0 0 1.47,-1.69 16,16 0 0 0 0.86,-1.91 c 0.16,-0.57 0.38,-1 0.51,-1.34 z"
       id="path899" />
    <path
       class="cls-2"
       d="m 696.62,320.64 v -0.74 c 1.09,-0.32 1.68,-0.5 1.76,-0.55 a 8.38,8.38 0 0 0 1.9,-1.24 8.64,8.64 0 0 0 1.67,-1.86 2.41,2.41 0 0 1 0.47,-0.05 h 0.3 c 0.07,0.81 0.11,1.39 0.11,1.76 0,0.08 0,0.46 -0.06,1.13 v 1.33 7.23 l -0.08,7.66 a 1.93,1.93 0 0 0 0.31,1.3 4.87,4.87 0 0 0 1.93,0.81 c 0.67,0.19 1.17,0.35 1.51,0.48 a 0.79,0.79 0 0 1 0.07,0.3 0.86,0.86 0 0 1 -0.12,0.38 c -0.66,0 -1.49,-0.06 -2.51,-0.13 -1.39,-0.11 -2.32,-0.17 -2.77,-0.17 l -4,0.12 a 13.47,13.47 0 0 0 -1.45,0.13 1.72,1.72 0 0 1 -0.4,-0.08 0.51,0.51 0 0 1 -0.13,-0.3 c 0,-0.23 0.16,-0.42 0.48,-0.55 0.06,0 0.92,-0.23 2.56,-0.58 a 1.61,1.61 0 0 0 1,-0.5 2.62,2.62 0 0 0 0.43,-1.68 c 0,-1.29 0.05,-4.81 0.05,-10.58 a 8.93,8.93 0 0 0 -0.15,-2.16 1.9,1.9 0 0 0 -0.67,-0.69 7.3,7.3 0 0 0 -2.21,-0.77 z m 2.11,-13 a 1.89,1.89 0 0 1 0.64,-1.43 2.13,2.13 0 0 1 1.54,-0.61 2.29,2.29 0 0 1 1.63,0.68 2,2 0 0 1 0.71,1.46 2.05,2.05 0 0 1 -0.71,1.47 2.26,2.26 0 0 1 -1.63,0.69 2.12,2.12 0 0 1 -1.56,-0.63 2.23,2.23 0 0 1 -0.62,-1.66 z"
       id="path901" />
    <path
       class="cls-2"
       d="m 727,333.88 v 1.63 a 12.11,12.11 0 0 1 -3.87,2.91 11.24,11.24 0 0 1 -4.49,0.83 9.12,9.12 0 0 1 -5.08,-1.47 9.49,9.49 0 0 1 -3.47,-4.15 12.63,12.63 0 0 1 -1.22,-5.28 10.48,10.48 0 0 1 1.47,-5.36 9.46,9.46 0 0 1 3.89,-3.77 13.23,13.23 0 0 1 6.09,-1.24 9.72,9.72 0 0 1 5.35,1.21 2.11,2.11 0 0 1 1,1.8 1.81,1.81 0 0 1 -1.89,1.86 4.16,4.16 0 0 1 -2.76,-1.56 6.43,6.43 0 0 0 -1.62,-1.29 3.7,3.7 0 0 0 -1.68,-0.37 4.58,4.58 0 0 0 -3.72,1.84 10.26,10.26 0 0 0 -2.06,6.55 9.48,9.48 0 0 0 2.11,6.48 6.37,6.37 0 0 0 4.92,2.41 8.82,8.82 0 0 0 3.48,-0.64 14.68,14.68 0 0 0 3.55,-2.39 z"
       id="path903" />
    <path
       class="cls-2"
       d="m 748.78,335.06 a 1.27,1.27 0 0 1 0.15,0.47 3.16,3.16 0 0 1 -0.6,1.33 5.44,5.44 0 0 1 -1.74,1.84 3.1,3.1 0 0 1 -1.65,0.38 3.31,3.31 0 0 1 -2.72,-1.11 4.8,4.8 0 0 1 -0.77,-2.34 l -2.82,2 a 11.51,11.51 0 0 1 -2.26,1.08 12,12 0 0 1 -3,0.33 2.59,2.59 0 0 1 -2.76,-2.74 c 0,-1.15 0.7,-2.53 2.12,-4.14 a 15.59,15.59 0 0 1 5.78,-3.94 c 1.71,-0.72 2.76,-1.18 3.15,-1.39 0,-0.55 0.05,-1.15 0.05,-1.8 q 0,-3.19 -0.9,-4.32 a 3.06,3.06 0 0 0 -2.56,-1.13 4.78,4.78 0 0 0 -3.24,1.35 5.94,5.94 0 0 0 -1.42,3.22 5.43,5.43 0 0 1 -0.57,1.4 3.53,3.53 0 0 1 -1.74,0.71 1.67,1.67 0 0 1 -1,-0.33 0.49,0.49 0 0 1 -0.25,-0.4 8.55,8.55 0 0 1 1.39,-2.95 9.2,9.2 0 0 1 3.52,-3.44 8.11,8.11 0 0 1 3.7,-1.15 10,10 0 0 1 3.22,0.39 4.42,4.42 0 0 1 1.86,1.37 4.38,4.38 0 0 1 1,2.14 36.79,36.79 0 0 1 0.11,3.94 l -0.08,4 v 2.92 c 0,0.38 0,0.71 0,1 q 0,0.72 0,1.08 a 1.86,1.86 0 0 0 0.48,1.33 1.53,1.53 0 0 0 1.13,0.5 2,2 0 0 0 1.63,-1 l 0.31,-0.4 a 2,2 0 0 1 0.48,-0.2 z m -7.36,-0.73 q 0.18,-3.19 0.18,-4.5 c 0,-0.45 0,-1.06 -0.08,-1.83 a 17.12,17.12 0 0 0 -3.58,1.83 10.64,10.64 0 0 0 -3,2.84 3.92,3.92 0 0 0 -0.8,2.19 2.18,2.18 0 0 0 0.67,1.63 2.3,2.3 0 0 0 1.67,0.65 4.39,4.39 0 0 0 1.89,-0.55 12.9,12.9 0 0 0 3.05,-2.26 z"
       id="path905" />
    <path
       class="cls-2"
       d="m 750.56,307.36 v -0.56 c 0.47,-0.15 1,-0.31 1.56,-0.47 l 3.73,-1.23 H 757 v 1.38 q 0,20.63 -0.12,24.6 c 0,1.56 -0.08,2.39 -0.08,2.49 a 10.35,10.35 0 0 0 0.23,3.14 c 0.2,0.31 0.81,0.51 1.84,0.63 a 6.76,6.76 0 0 1 1.82,0.35 0.36,0.36 0 0 1 0.2,0.36 0.54,0.54 0 0 1 -0.11,0.39 0.59,0.59 0 0 1 -0.41,0.11 l -2.64,-0.09 -3.29,-0.11 -4.22,0.2 a 0.81,0.81 0 0 1 -0.6,-0.16 0.43,0.43 0 0 1 -0.15,-0.36 0.42,0.42 0 0 1 0.16,-0.37 8.69,8.69 0 0 1 1.81,-0.39 6.58,6.58 0 0 0 1.88,-0.47 1.23,1.23 0 0 0 0.32,-0.84 c 0.06,-0.6 0.1,-2.3 0.1,-5.1 v -5.77 l 0.08,-6 v -6 l 0.08,-2.94 a 2.26,2.26 0 0 0 -0.28,-1.26 2.73,2.73 0 0 0 -1.18,-0.77 c -0.92,-0.33 -1.54,-0.6 -1.88,-0.76 z"
       id="path907" />
    <path
       class="cls-2"
       d="m 793.86,307.48 c 0.13,1.11 0.2,1.74 0.2,1.91 l -0.1,2.24 a 17.82,17.82 0 0 1 -0.13,1.83 0.93,0.93 0 0 1 -0.37,0.1 l -0.23,-0.05 a 9.12,9.12 0 0 0 -2.73,-5.12 7,7 0 0 0 -4.68,-1.61 6.84,6.84 0 0 0 -4.7,1.61 4.85,4.85 0 0 0 -1.83,3.74 4.29,4.29 0 0 0 1.28,3 c 0.86,0.9 3,2.25 6.56,4.06 a 42.9,42.9 0 0 1 5.75,3.39 9,9 0 0 1 2.61,3.06 8.35,8.35 0 0 1 0.88,3.87 9.79,9.79 0 0 1 -1.4,5.05 9,9 0 0 1 -3.75,3.56 14,14 0 0 1 -6.22,1.18 19.76,19.76 0 0 1 -6.51,-1.08 7.48,7.48 0 0 1 -2.23,-1.05 1.21,1.21 0 0 1 -0.4,-0.86 6.68,6.68 0 0 1 0,-0.7 47.9,47.9 0 0 0 0.38,-4.87 4.23,4.23 0 0 1 0.18,-1.38 0.39,0.39 0 0 1 0.37,-0.18 0.44,0.44 0 0 1 0.37,0.16 1.32,1.32 0 0 1 0.19,0.62 8.49,8.49 0 0 0 2.86,5.52 8.24,8.24 0 0 0 9.46,1.61 6.18,6.18 0 0 0 2.61,-2.4 6,6 0 0 0 0.94,-3.05 5.66,5.66 0 0 0 -1.43,-3.72 20.37,20.37 0 0 0 -5.75,-3.93 43,43 0 0 1 -5.63,-3.27 12.21,12.21 0 0 1 -3.16,-3.57 7.07,7.07 0 0 1 -0.78,-3.39 7.56,7.56 0 0 1 2.76,-5.91 10.81,10.81 0 0 1 7.41,-2.43 15.14,15.14 0 0 1 4.42,0.58 10.84,10.84 0 0 1 2.8,1.48 z"
       id="path909" />
    <path
       class="cls-2"
       d="m 818.59,333.88 v 1.63 a 12.11,12.11 0 0 1 -3.87,2.91 11.24,11.24 0 0 1 -4.49,0.83 9.12,9.12 0 0 1 -5.08,-1.47 9.58,9.58 0 0 1 -3.48,-4.15 12.77,12.77 0 0 1 -1.21,-5.28 10.56,10.56 0 0 1 1.54,-5.35 9.54,9.54 0 0 1 3.9,-3.77 13.23,13.23 0 0 1 6.09,-1.24 9.74,9.74 0 0 1 5.35,1.21 2.11,2.11 0 0 1 1,1.8 1.81,1.81 0 0 1 -1.89,1.86 4.14,4.14 0 0 1 -2.76,-1.56 6.43,6.43 0 0 0 -1.69,-1.3 3.73,3.73 0 0 0 -1.68,-0.37 4.57,4.57 0 0 0 -3.72,1.84 10.26,10.26 0 0 0 -2.06,6.55 9.48,9.48 0 0 0 2.11,6.48 6.37,6.37 0 0 0 4.92,2.41 8.82,8.82 0 0 0 3.48,-0.64 14.68,14.68 0 0 0 3.54,-2.39 z"
       id="path911" />
    <path
       class="cls-2"
       d="m 821.41,320.64 v -0.74 c 1.09,-0.32 1.68,-0.5 1.76,-0.55 a 8.38,8.38 0 0 0 1.9,-1.24 8.64,8.64 0 0 0 1.67,-1.86 2.34,2.34 0 0 1 0.47,-0.05 h 0.3 c 0.07,0.81 0.1,1.39 0.1,1.76 0,0.08 0,0.46 0,1.13 v 1.33 7.23 l -0.08,7.66 a 2,2 0 0 0 0.3,1.3 5,5 0 0 0 1.94,0.81 c 0.67,0.19 1.17,0.35 1.51,0.48 a 0.79,0.79 0 0 1 0.07,0.3 0.86,0.86 0 0 1 -0.12,0.38 c -0.66,0 -1.5,-0.06 -2.52,-0.13 -1.39,-0.11 -2.31,-0.17 -2.76,-0.17 l -4,0.12 a 13.47,13.47 0 0 0 -1.45,0.13 1.72,1.72 0 0 1 -0.4,-0.08 0.51,0.51 0 0 1 -0.13,-0.3 c 0,-0.23 0.16,-0.42 0.48,-0.55 0.06,0 0.92,-0.23 2.56,-0.58 a 1.63,1.63 0 0 0 1,-0.5 2.62,2.62 0 0 0 0.43,-1.68 c 0,-1.29 0,-4.81 0,-10.58 a 8.93,8.93 0 0 0 -0.15,-2.16 1.9,1.9 0 0 0 -0.67,-0.69 7.3,7.3 0 0 0 -2.21,-0.77 z m 2.11,-13 a 1.89,1.89 0 0 1 0.64,-1.43 2.13,2.13 0 0 1 1.54,-0.61 2.29,2.29 0 0 1 1.63,0.68 2,2 0 0 1 0.71,1.46 2.05,2.05 0 0 1 -0.71,1.47 2.26,2.26 0 0 1 -1.63,0.69 2.12,2.12 0 0 1 -1.56,-0.63 2.19,2.19 0 0 1 -0.62,-1.66 z"
       id="path913" />
    <path
       class="cls-2"
       d="m 851.62,325.21 -10.07,0.08 h -1.91 c -0.77,0 -1.56,0 -2.36,0.11 a 4.46,4.46 0 0 0 -0.23,1 v 0.25 0.25 1.23 a 9.78,9.78 0 0 0 1,3.76 7.35,7.35 0 0 0 2.76,3.38 8.5,8.5 0 0 0 4.48,1.25 9.45,9.45 0 0 0 2.29,-0.35 11.86,11.86 0 0 0 2.41,-1.28 l 1.81,-1.49 0.15,1 a 2.64,2.64 0 0 1 0,0.38 11,11 0 0 1 -2.86,2.51 13.73,13.73 0 0 1 -3.52,1.58 12.14,12.14 0 0 1 -2.81,0.23 9,9 0 0 1 -3.51,-0.73 8.59,8.59 0 0 1 -4,-3.56 11.33,11.33 0 0 1 -1.47,-5.94 12.43,12.43 0 0 1 0.41,-2.83 15.48,15.48 0 0 1 1.49,-3.7 7.3,7.3 0 0 1 1.79,-2.18 11.73,11.73 0 0 1 2.64,-1.68 9.82,9.82 0 0 1 3.79,-0.68 7.54,7.54 0 0 1 3.81,0.85 7.7,7.7 0 0 1 3,2.92 6.81,6.81 0 0 1 1,3.26 z m -14,-0.9 h 1.18 c 0.86,0 3.4,-0.14 7.64,-0.4 a 3.33,3.33 0 0 0 1.23,-0.2 1.36,1.36 0 0 0 0.45,-0.86 4.05,4.05 0 0 0 -0.5,-1.77 3.48,3.48 0 0 0 -1.55,-1.53 5.17,5.17 0 0 0 -2.42,-0.54 5.71,5.71 0 0 0 -4.67,2.18 5.11,5.11 0 0 0 -1.38,3.12 z"
       id="path915" />
    <path
       class="cls-2"
       d="m 854.1,337.64 c 0.42,-0.11 0.91,-0.21 1.46,-0.3 a 4.41,4.41 0 0 0 1.9,-0.52 2,2 0 0 0 0.31,-1.38 l 0.05,-0.9 c 0,-0.33 0,-0.76 0,-1.28 l -0.05,-7.68 a 3.26,3.26 0 0 0 -0.4,-2 4.38,4.38 0 0 0 -2.51,-1 v -0.92 a 7.43,7.43 0 0 0 2.81,-1.31 8.89,8.89 0 0 0 2.41,-3.07 h 0.86 c 0,0.79 0.07,1.35 0.07,1.69 v 1.66 0.45 c 0.2,-0.13 0.43,-0.3 0.7,-0.5 a 16.68,16.68 0 0 1 3.09,-1.86 15.21,15.21 0 0 1 2.81,-1 7.28,7.28 0 0 1 1.76,-0.2 5.78,5.78 0 0 1 3.54,1.1 5,5 0 0 1 1.92,2.61 25.1,25.1 0 0 1 0.44,5.94 V 331 c 0,0.1 0,0.44 0,1 0,0.56 0,1.22 0,2 a 9.92,9.92 0 0 0 0.15,2.24 1.53,1.53 0 0 0 0.65,0.65 6,6 0 0 1 2.82,0.78 v 0.2 a 1.81,1.81 0 0 1 -0.16,0.63 h -0.47 l -3.32,-0.05 -3.26,0.07 c -1.21,0 -2.32,0 -3.34,0 l -0.15,-0.53 a 0.75,0.75 0 0 1 0.17,-0.4 5.91,5.91 0 0 1 1.91,-0.4 4.36,4.36 0 0 0 1,-0.16 2.53,2.53 0 0 0 0.67,-0.4 2.35,2.35 0 0 0 0.3,-1 6.86,6.86 0 0 0 -0.05,-0.71 c 0,-0.77 -0.08,-2.69 -0.1,-5.76 v -1.3 -2 c 0,-2.16 -0.43,-3.65 -1.3,-4.47 a 4.9,4.9 0 0 0 -3.49,-1.24 7.84,7.84 0 0 0 -3.29,0.74 11.37,11.37 0 0 0 -3.12,2.23 c 0,0.8 0,1.49 0,2.06 l 0.08,5.55 c 0,2.89 0,4.67 0.12,5.32 a 1.2,1.2 0 0 0 0.18,0.55 1.55,1.55 0 0 0 0.8,0.33 c 0.41,0.08 0.87,0.2 1.4,0.35 l 1,0.28 a 1,1 0 0 1 0.68,0.5 v 0.5 h -2.63 l -5.43,-0.07 h -2.38 -0.63 l -0.05,-0.32 a 2.41,2.41 0 0 1 0.07,-0.53 z"
       id="path917" />
    <path
       class="cls-2"
       d="m 899.46,333.88 v 1.63 a 12,12 0 0 1 -3.86,2.91 11.29,11.29 0 0 1 -4.5,0.83 9.09,9.09 0 0 1 -5.07,-1.47 9.45,9.45 0 0 1 -3.48,-4.15 12.79,12.79 0 0 1 -1.22,-5.28 10.48,10.48 0 0 1 1.47,-5.36 9.52,9.52 0 0 1 3.89,-3.77 13.29,13.29 0 0 1 6.11,-1.22 9.7,9.7 0 0 1 5.35,1.21 2.09,2.09 0 0 1 1,1.8 1.76,1.76 0 0 1 -0.53,1.33 1.79,1.79 0 0 1 -1.35,0.53 4.12,4.12 0 0 1 -2.76,-1.56 6.29,6.29 0 0 0 -1.69,-1.31 3.7,3.7 0 0 0 -1.68,-0.37 4.58,4.58 0 0 0 -3.72,1.84 10.25,10.25 0 0 0 -2.02,6.53 9.48,9.48 0 0 0 2.11,6.48 6.34,6.34 0 0 0 4.92,2.41 8.89,8.89 0 0 0 3.48,-0.64 14.87,14.87 0 0 0 3.55,-2.37 z"
       id="path919" />
    <path
       class="cls-2"
       d="m 920.7,325.21 -10.07,0.08 h -1.91 c -0.77,0 -1.55,0 -2.36,0.11 a 4.27,4.27 0 0 0 -0.22,1 v 0.25 0.25 1.23 a 9.92,9.92 0 0 0 1,3.76 7.43,7.43 0 0 0 2.77,3.38 8.47,8.47 0 0 0 4.48,1.25 9.53,9.53 0 0 0 2.29,-0.35 12.13,12.13 0 0 0 2.41,-1.28 l 1.8,-1.49 0.16,1 a 2.64,2.64 0 0 1 0,0.38 11.12,11.12 0 0 1 -2.86,2.51 13.88,13.88 0 0 1 -3.52,1.58 12.26,12.26 0 0 1 -2.81,0.23 9.14,9.14 0 0 1 -3.52,-0.73 8.64,8.64 0 0 1 -4,-3.56 11.33,11.33 0 0 1 -1.47,-5.94 12.53,12.53 0 0 1 0.42,-2.83 14.69,14.69 0 0 1 1.49,-3.7 7.42,7.42 0 0 1 1.78,-2.18 12.19,12.19 0 0 1 2.64,-1.68 9.86,9.86 0 0 1 3.79,-0.68 7.42,7.42 0 0 1 6.82,3.77 6.81,6.81 0 0 1 1,3.26 z m -14,-0.9 h 1.18 c 0.85,0 3.4,-0.14 7.64,-0.4 a 3.38,3.38 0 0 0 1.23,-0.2 1.36,1.36 0 0 0 0.45,-0.86 4.05,4.05 0 0 0 -0.5,-1.77 3.48,3.48 0 0 0 -1.55,-1.53 5.17,5.17 0 0 0 -2.42,-0.54 5.71,5.71 0 0 0 -4.67,2.18 5.05,5.05 0 0 0 -1.37,3.12 z"
       id="path921" />
    <path
       class="cls-2"
       d="m 925.85,332.09 a 18.79,18.79 0 0 0 1.41,3.09 7.22,7.22 0 0 0 2.28,2.23 5.63,5.63 0 0 0 2.89,0.79 4.32,4.32 0 0 0 2.84,-1.23 2.86,2.86 0 0 0 1,-2.16 4.54,4.54 0 0 0 -1.18,-3 11.37,11.37 0 0 0 -4.48,-2.6 10.44,10.44 0 0 1 -4.43,-2.65 5,5 0 0 1 -1.13,-3.21 5,5 0 0 1 0.93,-3 5.68,5.68 0 0 1 2.56,-2 8.09,8.09 0 0 1 3,-0.66 17.33,17.33 0 0 1 3.21,0.27 8.14,8.14 0 0 1 2.44,0.86 35.71,35.71 0 0 1 0.33,3.77 l 0.05,0.8 c -0.22,0 -0.4,0 -0.55,0 h -0.35 a 7.3,7.3 0 0 0 -2.3,-3.3 5,5 0 0 0 -3,-1.22 3.33,3.33 0 0 0 -2.44,0.92 3.22,3.22 0 0 0 -0.93,2.4 3,3 0 0 0 0.76,2 10.06,10.06 0 0 0 3.52,2 18.8,18.8 0 0 1 4,2.09 6,6 0 0 1 1.87,2.35 6.69,6.69 0 0 1 0.6,2.64 5.3,5.3 0 0 1 -1.14,3.25 6.16,6.16 0 0 1 -2.86,2.12 9.34,9.34 0 0 1 -3.08,0.62 14.56,14.56 0 0 1 -5.88,-1.18 1,1 0 0 1 -0.27,-0.76 c 0,-0.15 0,-0.39 0,-0.73 -0.27,-2.26 -0.41,-3.6 -0.41,-4 a 0.53,0.53 0 0 1 0.13,-0.41 1.33,1.33 0 0 1 0.61,-0.09 z"
       id="path923" />
    <circle
       class="cls-2"
       cx="358.69"
       cy="240.06"
       r="4.5700002"
       id="circle925" />
    <circle
       class="cls-2"
       cx="223.14999"
       cy="318.29001"
       r="4.5700002"
       id="circle927" />
    <circle
       class="cls-2"
       cx="344.03"
       cy="227.67"
       r="5.5799999"
       id="circle929" />
    <circle
       class="cls-2"
       cx="324.54999"
       cy="218.28"
       r="6.8000002"
       id="circle931" />
    <circle
       class="cls-2"
       cx="300.37"
       cy="214.23"
       r="8.6700001"
       id="circle933" />
    <circle
       class="cls-2"
       cx="272.98999"
       cy="218.48"
       r="10.12"
       id="circle935" />
    <circle
       class="cls-2"
       cx="219.52"
       cy="299.09"
       r="5.5799999"
       id="circle937" />
    <circle
       class="cls-2"
       cx="221.07001"
       cy="277.79999"
       r="6.8000002"
       id="circle939" />
    <circle
       class="cls-2"
       cx="229.81"
       cy="254.72"
       r="8.6700001"
       id="circle941" />
    <circle
       class="cls-2"
       cx="247.64"
       cy="233.27"
       r="10.12"
       id="circle943" />
    <path
       class="cls-1"
       d="m 254.88,357.64 a 4.43,4.43 0 0 1 -0.29,0.55 7.83,7.83 0 0 1 -0.53,0.8 1.29,1.29 0 0 1 -0.16,0.17 h -0.06 l -0.33,-0.28 v -0.06 a 3,3 0 0 0 0.23,-1.17 1.39,1.39 0 0 0 -0.56,-1 1.36,1.36 0 0 0 -0.92,-0.33 1,1 0 0 0 -0.74,0.4 1,1 0 0 0 -0.18,0.79 3.47,3.47 0 0 0 0.71,1.41 6.23,6.23 0 0 1 0.5,0.81 2.79,2.79 0 0 1 0.3,0.9 2,2 0 0 1 -0.46,1.63 2.93,2.93 0 0 1 -0.85,0.75 1.47,1.47 0 0 1 -0.62,0.21 3.34,3.34 0 0 1 -0.7,0 2.47,2.47 0 0 1 -0.83,-0.2 3.65,3.65 0 0 1 -0.89,-0.55 4.63,4.63 0 0 1 -0.72,-0.7 l -0.44,-0.61 a 0.93,0.93 0 0 1 -0.21,-0.35 c 0,0 0,-0.06 0,-0.12 v -0.05 l 0.48,-0.67 0.33,-0.45 0.14,-0.17 0.45,0.33 c -0.12,0.47 -0.19,0.75 -0.2,0.86 a 1.92,1.92 0 0 0 0,0.64 1.66,1.66 0 0 0 0.24,0.57 2.21,2.21 0 0 0 0.47,0.5 2.32,2.32 0 0 0 0.65,0.33 1.35,1.35 0 0 0 0.77,0 1.13,1.13 0 0 0 0.6,-0.39 1.11,1.11 0 0 0 0.17,-0.91 4.53,4.53 0 0 0 -0.69,-1.32 6.31,6.31 0 0 1 -0.78,-1.48 2,2 0 0 1 0,-1.06 2.33,2.33 0 0 1 0.41,-0.93 2.19,2.19 0 0 1 1.53,-0.87 2.79,2.79 0 0 1 2,0.7 5.42,5.42 0 0 1 0.61,0.6 5.48,5.48 0 0 1 0.57,0.72 z"
       id="path945" />
    <path
       class="cls-1"
       d="m 256.38,367.75 0.22,-0.37 a 3.73,3.73 0 0 1 0.39,0.1 2.09,2.09 0 0 0 0.6,0.12 1,1 0 0 0 0.35,-0.39 l 0.35,-0.62 0.69,-1.18 0.15,-0.28 c 0.43,-0.67 0.64,-1 0.66,-1 l 0.38,-0.7 0.18,-0.27 0.31,-0.61 0.12,-0.23 a 0.6,0.6 0 0 0 0.06,-0.18 2.21,2.21 0 0 0 -0.62,-0.52 l -0.17,-0.13 0.25,-0.46 1.45,0.92 0.34,0.21 1,0.52 0.5,0.24 a 0.87,0.87 0 0 1 -0.09,0.17 1.54,1.54 0 0 1 -0.14,0.22 5.44,5.44 0 0 1 -0.56,-0.13 3.6,3.6 0 0 0 -0.51,-0.12 2.45,2.45 0 0 0 -0.26,0.37 c -0.08,0.15 -0.15,0.27 -0.19,0.37 -0.35,0.58 -0.61,1 -0.79,1.35 l -0.79,1.37 -0.42,0.68 -0.58,1.06 -0.13,0.18 a 0.84,0.84 0 0 0 0,0.14 5.33,5.33 0 0 0 0.52,0.42 l 0.3,0.23 c -0.05,0.11 -0.09,0.2 -0.13,0.27 l -0.11,0.17 -0.11,-0.05 -0.19,-0.1 -0.13,-0.1 -0.65,-0.46 -0.91,-0.54 a 9.18,9.18 0 0 0 -0.83,-0.41 z"
       id="path947" />
    <path
       class="cls-1"
       d="m 268,365.83 0.13,-0.4 0.48,0.18 0.16,0.06 a 3.91,3.91 0 0 1 0.47,0.16 l 0.39,0.15 0.12,0.06 0.36,0.12 0.35,0.12 0.17,0.07 c 0.38,0.74 0.68,1.37 0.9,1.88 0.22,0.51 1,2.34 2.47,5.47 l 0.05,-0.15 0.23,-0.65 c 0.13,-0.39 0.23,-0.7 0.29,-0.93 0.06,-0.23 0.16,-0.5 0.27,-0.81 0.11,-0.31 0.21,-0.59 0.28,-0.85 0.14,-0.51 0.22,-0.8 0.25,-0.87 a 0.86,0.86 0 0 0 0.09,-0.48 1.09,1.09 0 0 0 -0.47,-0.38 1.72,1.72 0 0 1 -0.41,-0.31 l 0.13,-0.32 h 0.15 l 1.12,0.39 1.25,0.43 0.23,0.08 -0.13,0.37 H 277 a 2.89,2.89 0 0 0 -0.46,0 l -0.38,0.08 a 0.35,0.35 0 0 0 -0.13,0.19 2,2 0 0 0 -0.08,0.24 c 0,0.07 -0.08,0.23 -0.17,0.47 -0.2,0.55 -0.35,1 -0.44,1.3 0,0.11 -0.07,0.22 -0.11,0.35 l -0.68,2 c 0,0.15 -0.09,0.24 -0.11,0.3 l -0.26,0.69 -0.09,0.3 -0.13,0.29 c 0,0.16 -0.07,0.26 -0.08,0.29 l -0.12,0.29 -0.65,-0.22 -0.41,-0.94 -0.85,-1.86 -0.59,-1.32 -0.43,-1 c -0.29,-0.62 -0.56,-1.17 -0.8,-1.65 l -0.61,-1.17 -0.73,2.1 c -0.05,0.13 -0.09,0.26 -0.15,0.4 l -0.15,0.39 -0.25,0.75 c -0.1,0.31 -0.2,0.65 -0.31,1 a 2,2 0 0 0 -0.05,0.22 v 0.19 a 4.41,4.41 0 0 0 0.91,0.48 0.76,0.76 0 0 1 0.13,0.1 l -0.14,0.46 -0.23,-0.08 c -0.12,0 -0.48,-0.21 -1.1,-0.51 -0.62,-0.3 -1,-0.35 -1.2,-0.41 l -0.33,-0.1 a 0.85,0.85 0 0 1 -0.18,-0.1 c 0,-0.08 0.05,-0.16 0.07,-0.22 l 0.09,-0.21 a 1.65,1.65 0 0 1 0.26,0.08 1.39,1.39 0 0 1 0.22,0.09 1.34,1.34 0 0 0 0.58,0.14 c 0.08,0 0.16,-0.14 0.24,-0.34 0.25,-0.59 0.41,-0.95 0.45,-1.08 l 0.12,-0.31 0.7,-1.81 0.41,-1.15 a 3.85,3.85 0 0 0 0.26,-0.93 0.54,0.54 0 0 0 -0.05,-0.28 1.27,1.27 0 0 0 -0.32,-0.46 4.21,4.21 0 0 0 -0.67,-0.43 z"
       id="path949" />
    <path
       class="cls-1"
       d="m 289.47,371.58 a 9.1,9.1 0 0 1 0.14,1.07 3.27,3.27 0 0 1 0,0.82 l -0.53,-0.1 a 4.13,4.13 0 0 0 -1,-1.36 2.64,2.64 0 0 0 -1.29,-0.59 1.8,1.8 0 0 0 -1.6,0.44 4.4,4.4 0 0 0 -1.25,2.56 5.86,5.86 0 0 0 -0.13,1.45 3.66,3.66 0 0 0 0.34,1.23 1.76,1.76 0 0 0 0.55,0.64 2.54,2.54 0 0 0 1.06,0.47 2.39,2.39 0 0 0 1.33,-0.18 4.83,4.83 0 0 0 1.38,-1 3.47,3.47 0 0 1 0.58,0 c -0.05,0.15 -0.1,0.3 -0.16,0.45 -0.06,0.15 -0.12,0.31 -0.27,0.73 l -0.09,0.16 -0.13,0.26 a 2.55,2.55 0 0 1 -1.09,0.24 8.69,8.69 0 0 1 -1.63,-0.15 6.75,6.75 0 0 1 -1.34,-0.39 3.33,3.33 0 0 1 -1,-0.63 3.85,3.85 0 0 1 -0.89,-1.11 3.62,3.62 0 0 1 -0.38,-1.18 4.81,4.81 0 0 1 0,-1.35 4,4 0 0 1 1.69,-2.69 4.15,4.15 0 0 1 3.17,-0.61 12.31,12.31 0 0 1 1.36,0.33 8.25,8.25 0 0 1 1.18,0.49 z"
       id="path951" />
    <path
       class="cls-1"
       d="m 295.25,372.08 a 4.69,4.69 0 0 1 0.59,0.06 8.72,8.72 0 0 0 1.1,0.07 h 1.11 c 0.89,0 1.69,0 2.41,0 h 1.09 a 8,8 0 0 1 1.08,0.1 0.47,0.47 0 0 1 0.1,0.32 v 1.48 a 0.49,0.49 0 0 1 0,0.11 h -0.45 l -0.14,-0.36 -0.23,-0.42 a 2.64,2.64 0 0 0 -0.38,-0.56 1.35,1.35 0 0 0 -0.38,-0.05 h -0.37 a 11.2,11.2 0 0 0 -1.2,-0.06 c -0.49,0 -0.92,0 -1.31,0 0,0.1 0,0.49 0,1.18 v 1.76 a 1.19,1.19 0 0 0 0.25,0 c 0.72,0 1.23,0 1.54,0 a 1.49,1.49 0 0 0 0.56,-0.12 0.56,0.56 0 0 0 0.2,-0.26 8.14,8.14 0 0 0 0.21,-0.88 h 0.43 c 0,0.35 0,0.62 0,0.81 0,0.42 0,0.69 0,0.81 0,0.12 0,0.21 0,0.28 0,0.07 0,0.28 0,0.52 0,0.24 0,0.41 0,0.53 v 0.13 H 301 c 0,-0.07 0,-0.2 -0.09,-0.4 a 2.15,2.15 0 0 0 -0.21,-0.7 0.41,0.41 0 0 0 -0.24,-0.16 4.15,4.15 0 0 0 -0.88,-0.05 12.51,12.51 0 0 0 -1.37,0 v 0.2 c 0,0.48 0,0.87 0,1.19 v 1.29 a 0.33,0.33 0 0 0 0.16,0.32 4.88,4.88 0 0 0 1.5,0.13 6.55,6.55 0 0 0 1.42,-0.11 1.41,1.41 0 0 0 0.71,-0.4 3.16,3.16 0 0 0 0.69,-1.12 h 0.5 c 0,0.1 0,0.18 0,0.25 v 0.18 l -0.23,1.13 -0.11,0.68 h -0.62 c -0.22,0 -0.82,0 -1.79,-0.07 -0.68,0 -1.51,-0.06 -2.47,-0.07 -0.48,0 -1.07,0 -1.77,0.05 h -0.25 -0.73 v -0.42 l 0.46,-0.06 a 2.91,2.91 0 0 0 0.86,-0.19 1.08,1.08 0 0 0 0.07,-0.43 c 0,-0.07 0,-0.19 0,-0.35 v -3.12 -1 -0.68 -0.74 a 0.71,0.71 0 0 1 0,-0.12 0.26,0.26 0 0 0 -0.18,-0.09 h -0.17 a 4,4 0 0 0 -0.66,-0.09 h -0.27 z"
       id="path953" />
    <path
       class="cls-1"
       d="m 318.4,369.77 0.39,-0.11 h 0.19 l 0.37,-0.09 a 1.38,1.38 0 0 1 0.09,0.27 1.34,1.34 0 0 1 0,0.18 c 0,0.06 0.06,0.27 0.14,0.63 l 0.21,0.88 0.14,0.55 0.93,3.94 0.08,0.33 a 0.34,0.34 0 0 0 0.15,0.23 1,1 0 0 0 0.47,0 c 0.09,0 0.29,0 0.58,0 a 0.42,0.42 0 0 1 0,0.1 c 0,0.05 0,0.14 0,0.29 L 322,377 l -0.75,0.16 -0.41,0.08 -1,0.29 h -0.16 -0.11 -0.17 -0.15 l -0.3,0.06 -0.23,0.08 a 1.85,1.85 0 0 1 -0.06,-0.2 c 0,0 0,-0.11 0,-0.19 l 0.51,-0.27 a 1.21,1.21 0 0 0 0.48,-0.3 0.29,0.29 0 0 0 0,-0.24 l -0.1,-0.4 -0.09,-0.44 -0.22,-0.88 -0.06,-0.22 c 0,0 0,-0.15 -0.08,-0.36 -0.08,-0.21 0,-0.2 -0.06,-0.28 -0.06,-0.08 -0.05,-0.2 -0.13,-0.47 l -0.06,-0.33 c -0.08,-0.25 -0.12,-0.4 -0.13,-0.45 a 0.85,0.85 0 0 1 0,-0.17 v -0.15 l -0.11,-0.39 v -0.19 c 0,-0.08 0,-0.19 -0.07,-0.32 -0.07,-0.13 -0.08,-0.3 -0.13,-0.48 -0.22,0.27 -0.49,0.55 -0.79,0.85 l -0.46,0.36 a 1.72,1.72 0 0 1 -0.34,-0.36 c 0.35,-0.31 0.59,-0.54 0.72,-0.67 a 9.64,9.64 0 0 0 0.63,-0.84 5.59,5.59 0 0 0 0.23,-0.51 z"
       id="path955" />
    <path
       class="cls-1"
       d="m 329.18,374.91 a 0.39,0.39 0 0 1 -0.18,-0.18 0.25,0.25 0 0 1 0,-0.17 1.71,1.71 0 0 1 0.27,-0.28 4.77,4.77 0 0 0 0.79,-0.93 3.21,3.21 0 0 0 0.4,-1 3.3,3.3 0 0 0 0,-1.13 4.8,4.8 0 0 0 -0.19,-0.88 c 0,-0.06 -0.07,-0.23 -0.14,-0.5 a 5.33,5.33 0 0 0 -0.24,-0.7 4.17,4.17 0 0 0 -1.11,-1.82 0.85,0.85 0 0 0 -0.81,-0.14 0.81,0.81 0 0 0 -0.47,0.58 2.31,2.31 0 0 0 0.18,1.46 8.78,8.78 0 0 0 0.45,1 1.65,1.65 0 0 0 0.43,0.48 0.58,0.58 0 0 0 0.27,0.14 1.06,1.06 0 0 0 0.48,-0.06 1.12,1.12 0 0 0 0.28,-0.16 l 0.07,-0.05 a 0.2,0.2 0 0 1 0.15,0 0.29,0.29 0 0 1 0.13,0.17 0.27,0.27 0 0 1 -0.06,0.34 2.36,2.36 0 0 1 -0.72,0.44 2.28,2.28 0 0 1 -0.34,0.11 3.57,3.57 0 0 1 -0.77,0 2.4,2.4 0 0 1 -0.68,-0.28 1.71,1.71 0 0 1 -0.47,-0.46 3.61,3.61 0 0 1 -0.44,-0.79 2.84,2.84 0 0 1 -0.18,-1.35 2.19,2.19 0 0 1 0.48,-1.17 2.53,2.53 0 0 1 3.09,-0.61 3.66,3.66 0 0 1 1.63,2.06 5.31,5.31 0 0 1 0.34,1.72 5.84,5.84 0 0 1 -0.09,1 4.4,4.4 0 0 1 -0.49,1.41 4,4 0 0 1 -0.92,1.17 3.35,3.35 0 0 1 -0.95,0.63 z"
       id="path957" />
    <path
       class="cls-1"
       d="m 339.65,370.2 a 0.37,0.37 0 0 1 -0.19,-0.15 0.26,0.26 0 0 1 0,-0.17 1.47,1.47 0 0 1 0.23,-0.31 4.51,4.51 0 0 0 0.65,-1 3.16,3.16 0 0 0 0.26,-1.09 3.28,3.28 0 0 0 -0.13,-1.12 5,5 0 0 0 -0.31,-0.84 l -0.21,-0.48 a 6.72,6.72 0 0 0 -0.33,-0.66 4.1,4.1 0 0 0 -1.36,-1.65 0.84,0.84 0 0 0 -0.81,0 0.79,0.79 0 0 0 -0.39,0.64 2.38,2.38 0 0 0 0.37,1.42 6.87,6.87 0 0 0 0.59,0.89 1.77,1.77 0 0 0 0.48,0.43 0.65,0.65 0 0 0 0.3,0.1 1,1 0 0 0 0.46,-0.13 1.16,1.16 0 0 0 0.25,-0.2 l 0.07,-0.06 a 0.19,0.19 0 0 1 0.15,0 0.27,0.27 0 0 1 0.15,0.15 0.27,0.27 0 0 1 0,0.34 2.3,2.3 0 0 1 -0.66,0.53 1.25,1.25 0 0 1 -0.32,0.16 3.32,3.32 0 0 1 -0.76,0.07 2.3,2.3 0 0 1 -0.72,-0.18 1.77,1.77 0 0 1 -0.53,-0.39 3.34,3.34 0 0 1 -0.53,-0.72 2.7,2.7 0 0 1 -0.37,-1.31 2.14,2.14 0 0 1 0.32,-1.23 2.37,2.37 0 0 1 0.9,-0.85 2.41,2.41 0 0 1 2.08,-0.18 3.77,3.77 0 0 1 1.89,1.82 5.49,5.49 0 0 1 0.57,1.66 6.68,6.68 0 0 1 0,1 4.13,4.13 0 0 1 -0.29,1.47 4.36,4.36 0 0 1 -0.75,1.28 3.43,3.43 0 0 1 -0.85,0.76 z"
       id="path959" />
    <path
       class="cls-1"
       d="m 348,360 c 0,-0.07 -0.1,-0.12 -0.12,-0.16 l -0.12,-0.16 0.12,-0.21 a 2.07,2.07 0 0 1 0.55,-0.65 1.79,1.79 0 0 1 1.47,-0.35 2.37,2.37 0 0 1 1.45,1 2.47,2.47 0 0 1 0.56,1.87 2.54,2.54 0 0 1 -1.09,1.67 2.06,2.06 0 0 1 -0.89,0.41 2.34,2.34 0 0 1 -1,-0.06 3,3 0 0 1 -0.9,-0.37 4.18,4.18 0 0 1 -1.16,-1.07 4.93,4.93 0 0 1 -0.72,-1.35 4.16,4.16 0 0 1 -0.26,-1.58 4.65,4.65 0 0 1 0.3,-1.49 6.83,6.83 0 0 1 0.54,-1.14 4.54,4.54 0 0 1 0.92,-1.12 0.17,0.17 0 0 1 0.15,0 0.27,0.27 0 0 1 0.15,0.12 0.62,0.62 0 0 1 0.11,0.18 3.65,3.65 0 0 1 -0.29,0.39 3.58,3.58 0 0 0 -0.8,2.55 4.63,4.63 0 0 0 0.47,1.48 9.05,9.05 0 0 0 0.86,1.37 7.62,7.62 0 0 0 1,1.1 1.41,1.41 0 0 0 0.82,0.41 0.8,0.8 0 0 0 0.52,-0.2 0.6,0.6 0 0 0 0.22,-0.24 0.9,0.9 0 0 0 0.12,-0.46 1.54,1.54 0 0 0 -0.19,-0.71 3.78,3.78 0 0 0 -0.45,-0.7 2.53,2.53 0 0 0 -1.14,-1 0.91,0.91 0 0 0 -0.84,0.13 A 1.63,1.63 0 0 0 348,360 Z"
       id="path961" />
    <path
       class="cls-3"
       d="m 392.22,326.94 13,-22.85 -3.44,-0.94 c -6.42,9.23 -12.21,10.8 -20.19,10.8 l -17.22,0.63 c 14.24,-7.67 47.12,-23.49 47.12,-43.37 0,-8.76 -6.27,-14.71 -16.6,-14.71 -10.64,0 -22.54,5.32 -31.15,17.53 l 2.51,3.92 c 8.29,-9.55 15.81,-12.06 21.44,-12.06 6.26,0 8.61,3.13 8.61,7.2 0,15.5 -32.4,35.85 -50.25,48.22 l 0.47,3.91 h 42.42 l -0.31,1.72 z"
       id="path963" />
    <path
       class="cls-3"
       d="m 468.61,271.84 11.9,-19.1 h -3.6 c -4.38,4.38 -9.7,5.17 -18.16,5.17 H 434.8 l -26.14,40.7 2,3.13 c 21.14,-4.38 29,5.17 29,15.81 0,14.72 -14.55,32.56 -27.08,32.56 -10.17,0 -8,-12.52 -16,-12.52 -4.38,0 -6.73,2.19 -6.73,6.57 0,7.67 10.65,10.8 19.73,10.8 22.7,0 47.12,-18.78 47.12,-41.17 0,-14.4 -10.18,-26.45 -38,-22.85 l 12.52,-19.1 z"
       id="path965" />
    <path
       class="cls-2"
       d="m 267.52,279.84 c 0,0 -4,0.88 -5.39,1.16 -11.8,2 -10.31,8.75 -6.55,18.22 1.26,3.22 -2.92,3.83 -5.43,3.94 a 50,50 0 0 0 10.55,22.93 c 9.86,-32.17 6.82,-46.25 6.82,-46.25 z m 37.6,-8.09 -23.12,5.06 c 2.51,19 3.89,46.18 2.75,65.46 a 50.39,50.39 0 0 0 37.95,-3.47 c -12.16,-26.99 -17.58,-67.05 -17.58,-67.05 z m -5.62,-27.51 a 50.07,50.07 0 0 0 -41.18,21.54 35.54,35.54 0 0 1 7.84,-2.15 c 13.81,-2.72 22.86,4.16 54.73,-2.38 A 51.59,51.59 0 0 0 333,257.11 49.84,49.84 0 0 0 299.5,244.24 Z m 40.3,20.33 -22,4.62 c 1.33,10.27 13.07,31.66 26.68,47.38 a 50.14,50.14 0 0 0 -4.64,-52 z"
       id="path967" />
  </g>
</svg>
